<?xml version="1.0" encoding="UTF-8" standalone="no"?>
<!-- Created with Inkscape (http://www.inkscape.org/) -->

<svg
   width="210mm"
   height="297mm"
   viewBox="0 0 210 297"
   version="1.1"
   id="svg1"
   inkscape:version="1.3.2 (091e20e, 2023-11-25)"
   sodipodi:docname="design.svg"
   xml:space="preserve"
   xmlns:inkscape="http://www.inkscape.org/namespaces/inkscape"
   xmlns:sodipodi="http://sodipodi.sourceforge.net/DTD/sodipodi-0.dtd"
   xmlns="http://www.w3.org/2000/svg"
   xmlns:svg="http://www.w3.org/2000/svg"><sodipodi:namedview
     id="namedview1"
     pagecolor="#ffffff"
     bordercolor="#000000"
     borderopacity="0.25"
     inkscape:showpageshadow="2"
     inkscape:pageopacity="0.0"
     inkscape:pagecheckerboard="0"
     inkscape:deskcolor="#d1d1d1"
     inkscape:document-units="mm"
     inkscape:zoom="1.3028577"
     inkscape:cx="247.53278"
     inkscape:cy="442.10506"
     inkscape:window-width="1512"
     inkscape:window-height="945"
     inkscape:window-x="0"
     inkscape:window-y="37"
     inkscape:window-maximized="0"
     inkscape:current-layer="layer1"
     showgrid="false"
     inkscape:lockguides="false"><inkscape:grid
       id="grid2"
       units="px"
       originx="0"
       originy="0"
       spacingx="0.99999998"
       spacingy="1"
       empcolor="#0099e5"
       empopacity="0.30196078"
       color="#0099e5"
       opacity="0.14901961"
       empspacing="5"
       dotted="true"
       gridanglex="30"
       gridanglez="30"
       visible="false"
       snapvisiblegridlinesonly="true" /></sodipodi:namedview><defs
     id="defs1"><rect
       x="387.74584"
       y="844.51045"
       width="2.3264751"
       height="34.121634"
       id="rect32" /><rect
       x="45.941981"
       y="389.41299"
       width="279.01304"
       height="119.77438"
       id="rect21" /><rect
       x="45.941981"
       y="389.41299"
       width="279.01304"
       height="119.77438"
       id="rect25" /><rect
       x="45.941981"
       y="389.41299"
       width="279.01304"
       height="119.77438"
       id="rect26" /><rect
       x="45.941981"
       y="389.41299"
       width="279.01304"
       height="119.77438"
       id="rect31" /></defs><g
     inkscape:label="Layer 1"
     inkscape:groupmode="layer"
     id="layer1"><rect
       style="fill:#e7eae3;fill-opacity:1;stroke-width:0.262646"
       id="rect3"
       width="118.3535"
       height="243.77858"
       x="4.8943229"
       y="15.584078" /><text
       xml:space="preserve"
       style="font-size:7.58055px;fill:#59604a;fill-opacity:1;stroke-width:0.631714"
       x="42.743774"
       y="38.764256"
       id="text3"><tspan
         sodipodi:role="line"
         id="tspan3"
         style="font-style:normal;font-variant:normal;font-weight:bold;font-stretch:normal;font-family:'PT Sans';-inkscape-font-specification:'PT Sans Bold';fill:#59604a;fill-opacity:1;stroke-width:0.631714"
         x="42.743774"
         y="38.764256">insan</tspan></text><text
       xml:space="preserve"
       style="font-size:7.58055px;fill:#778562;fill-opacity:1;stroke-width:0.631714"
       x="42.849903"
       y="31.971138"
       id="text5"><tspan
         sodipodi:role="line"
         id="tspan5"
         style="font-style:normal;font-variant:normal;font-weight:bold;font-stretch:normal;font-family:'PT Sans';-inkscape-font-specification:'PT Sans Bold';fill:#778562;fill-opacity:1;stroke-width:0.631714"
         x="42.849903"
         y="31.971138">muhammad</tspan></text><text
       xml:space="preserve"
       style="font-size:7.58055px;fill:#778562;fill-opacity:1;stroke-width:0.631714"
       x="43.304737"
       y="45.504299"
       id="text6"><tspan
         sodipodi:role="line"
         id="tspan6"
         style="font-style:normal;font-variant:normal;font-weight:bold;font-stretch:normal;font-family:'PT Sans';-inkscape-font-specification:'PT Sans Bold';fill:#778562;fill-opacity:1;stroke-width:0.631714"
         x="43.304737"
         y="45.504299">al-amin</tspan></text><text
       xml:space="preserve"
       transform="matrix(0.26458333,0,0,0.26458333,33.351193,7.7028508)"
       id="text21"
       style="font-style:normal;font-variant:normal;font-weight:bold;font-stretch:normal;font-size:16px;font-family:'PT Sans';-inkscape-font-specification:'PT Sans Bold';white-space:pre;shape-inside:url(#rect21);display:inline;fill:#59604a;fill-opacity:1"><tspan
         x="45.941406"
         y="403.41211"
         id="tspan2"><tspan
           style="font-weight:normal;-inkscape-font-specification:'PT Sans'"
           id="tspan1">A generalist passionate about building </tspan></tspan><tspan
         x="45.941406"
         y="423.41211"
         id="tspan7"><tspan
           style="font-weight:normal;-inkscape-font-specification:'PT Sans'"
           id="tspan4">intelligent systems, capturing </tspan></tspan><tspan
         x="45.941406"
         y="443.41211"
         id="tspan9"><tspan
           style="font-weight:normal;-inkscape-font-specification:'PT Sans'"
           id="tspan8">knowledge, and maximising audience </tspan></tspan><tspan
         x="45.941406"
         y="463.41211"
         id="tspan11"><tspan
           style="font-weight:normal;-inkscape-font-specification:'PT Sans'"
           id="tspan10">engagement</tspan></tspan></text><g
       style="fill:#adac85;fill-opacity:1"
       id="g21"
       transform="matrix(0.02008048,0,0,0.02008048,14.961753,91.350483)"><path
         d="m 396,-357.56583 q -32,-32 -58.5,-67 -26.5,-35 -48.5,-74 -5,14 -6.5,28.5 -1.5,14.5 -1.5,28.5 0,83 58,141 58,58 141,58 14,0 28.5,-2 14.5,-2 28.5,-6 -39,-22 -74,-48.5 -35,-26.5 -67,-58.5 z m 57,-56 q 51,51 114,87.5 63,36.5 135,56.5 -40,51 -98,79.5 -58,28.5 -123,28.5 -117,0 -198.5,-81.5 -81.5,-81.5 -81.5,-198.5 0,-65 28.5,-123 28.5,-58 79.5,-98 20,72 56.5,135 36.5,63 87.5,114 z m 290,72 q -20,-5 -39.5,-11 -19.5,-6 -38.5,-14 8,-18 11.5,-36.5 3.5,-18.5 3.5,-38.5 0,-83 -58.5,-141.5 -58.5,-58.5 -141.5,-58.5 -20,0 -38.5,3.5 -18.5,3.5 -36.5,11.5 -8,-19 -13.5,-38 -5.5,-19 -10.5,-39 24,-9 49,-13.5 25,-4.5 51,-4.5 117,0 198.5,81.5 81.5,81.5 81.5,198.5 0,26 -4.5,51 -4.5,25 -13.5,49 z m -303,-460 v -120 h 80 v 120 z m 0,840.000005 v -120 h 80 v 120 z m 323,-706.000005 -57,-57 85,-84 57,56 z m -594,593.000005 -57,-56.000005 85,-85 57,57 z M 840,-401.56583 v -80 h 120 v 80 z m -840,0 v -80 h 120 v 80 z m 791,328.000005 -85,-85.000005 57,-57 84,85 z m -594,-594.000005 -84,-85 56,-57 85,85 z m 199,310 z"
         id="path1"
         style="fill:#adac85;fill-opacity:1" /></g><g
       style="fill:#92aaad;fill-opacity:1"
       id="g22"
       transform="matrix(0.02399492,0,0,0.02399492,40.334068,94.691778)"><path
         d="m 460,-160 q -50,0 -85,-35 -35,-35 -35,-85 h 80 q 0,17 11.5,28.5 11.5,11.5 28.5,11.5 17,0 28.5,-11.5 Q 500,-263 500,-280 500,-297 488.5,-308.5 477,-320 460,-320 H 80 v -80 h 380 q 50,0 85,35 35,35 35,85 0,50 -35,85 -35,35 -85,35 z M 80,-560 v -80 h 540 q 26,0 43,-17 17,-17 17,-43 0,-26 -17,-43 -17,-17 -43,-17 -26,0 -43,17 -17,17 -17,43 h -80 q 0,-59 40.5,-99.5 40.5,-40.5 99.5,-40.5 59,0 99.5,40.5 40.5,40.5 40.5,99.5 0,59 -40.5,99.5 Q 679,-560 620,-560 Z m 660,320 v -80 q 26,0 43,-17 17,-17 17,-43 0,-26 -17,-43 -17,-17 -43,-17 H 80 v -80 h 660 q 59,0 99.5,40.5 40.5,40.5 40.5,99.5 0,59 -40.5,99.5 Q 799,-240 740,-240 Z"
         id="path1-9"
         style="fill:#92aaad;fill-opacity:1" /></g><g
       style="fill:#91a7bc;fill-opacity:1"
       id="g23"
       transform="matrix(0.02205011,0,0,0.02205011,65.60516,93.11013)"><path
         d="m 218.56921,-163.32115 v -78 q 29,0 49.5,-9 20.5,-9 41.5,-19.5 21,-10.5 46.5,-19 25.5,-8.5 62.5,-8.5 38,0 62.5,8.5 24.5,8.5 45.5,19 21,10.5 42,19.5 21,9 50,9 29,0 50,-9 21,-9 42,-19.5 21,-10.5 46,-19 25,-8.5 62,-8.5 38,0 63,8.5 25,8.5 46,19 21,10.5 42,19.5 21,9 48.99999,9 v 78 q -37.99999,0 -63.49999,-9 -25.5,-9 -46.5,-19.5 -21,-10.5 -41,-19 -20,-8.5 -49,-8.5 -28,0 -48.5,8.5 -20.5,8.5 -41,19 -20.5,10.5 -46,19.5 -25.5,9 -64.5,9 -39,0 -64.5,-9 -25.5,-9 -46,-19.5 -20.5,-10.5 -40.5,-19 -20,-8.5 -49,-8.5 -28,0 -48.5,8.5 -20.5,8.5 -41.5,19 -21,10.5 -46.5,19.5 -25.5,9 -63.5,9 z m 0,-178 v -78 q 29,0 49.5,-9 20.5,-9 41.5,-19.5 21,-10.5 46.5,-19 25.5,-8.5 62.5,-8.5 38,0 62.5,8.5 24.5,8.5 45.5,19 21,10.5 42,19.5 21,9 50,9 29,0 50,-9 21,-9 42,-19.5 21,-10.5 46,-19 25,-8.5 62,-8.5 38,0 63,8.5 25,8.5 46,19 21,10.5 42,19.5 21,9 48.99999,9 v 78 q -37.99999,0 -63.49999,-9 -25.5,-9 -46.5,-19.5 -21,-10.5 -41,-19 -20,-8.5 -49,-8.5 -29,0 -49.5,8.5 -20.5,8.5 -41,19 -20.5,10.5 -45.5,19.5 -25,9 -64,9 -39,0 -64.5,-9 -25.5,-9 -46,-19.5 -20.5,-10.5 -40.5,-19 -20,-8.5 -49,-8.5 -28,0 -48.5,8.5 -20.5,8.5 -41.5,19 -21,10.5 -46.5,19.5 -25.5,9 -63.5,9 z m 0,-178 v -78 q 29,0 49.5,-9 20.5,-9 41.5,-19.5 21,-10.5 46.5,-19 25.5,-8.5 62.5,-8.5 38,0 62.5,8.5 24.5,8.5 45.5,19 21,10.5 42,19.5 21,9 50,9 29,0 50,-9 21,-9 42,-19.5 21,-10.5 46,-19 25,-8.5 62,-8.5 38,0 63,8.5 25,8.5 46,19 21,10.5 42,19.5 21,9 48.99999,9 v 78 q -37.99999,0 -63.49999,-9 -25.5,-9 -46.5,-19.5 -21,-10.5 -41,-19 -20,-8.5 -49,-8.5 -28,0 -48.5,8.5 -20.5,8.5 -41,19 -20.5,10.5 -46,19.5 -25.5,9 -64.5,9 -39,0 -64.5,-9 -25.5,-9 -46,-19.5 -20.5,-10.5 -40.5,-19 -20,-8.5 -49,-8.5 -28,0 -48.5,8.5 -20.5,8.5 -41.5,19 -21,10.5 -46.5,19.5 -25.5,9 -63.5,9 z m 0,-178 v -78 q 29,0 49.5,-9 20.5,-9 41.5,-19.5 21,-10.5 46.5,-19 25.5,-8.5 62.5,-8.5 38,0 62.5,8.5 24.5,8.5 45.5,19 21,10.5 42,19.5 21,9 50,9 29,0 50,-9 21,-9 42,-19.5 21,-10.5 46,-19 25,-8.5 62,-8.5 38,0 63,8.5 25,8.5 46,19 21,10.5 42,19.5 21,9 48.99999,9 v 78 q -37.99999,0 -63.49999,-9 -25.5,-9 -46.5,-19.5 -21,-10.5 -41,-19 -20,-8.5 -49,-8.5 -28,0 -48.5,8.5 -20.5,8.5 -41,19 -20.5,10.5 -46,19.5 -25.5,9 -64.5,9 -39,0 -64.5,-9 -25.5,-9 -46,-19.5 -20.5,-10.5 -40.5,-19 -20,-8.5 -49,-8.5 -28,0 -48.5,8.5 -20.5,8.5 -41.5,19 -21,10.5 -46.5,19.5 -25.5,9 -63.5,9 z"
         id="path1-5"
         style="fill:#91a7bc;fill-opacity:1" /></g><g
       style="fill:#b6a9ad;fill-opacity:1"
       id="g24"
       transform="matrix(0.02405355,0,0,0.02405355,93.877941,94.083206)"><path
         d="m 272,-160 q -30,0 -51,-21 -21,-21 -21,-51 0,-21 12,-39.5 12,-18.5 32,-26.5 l 156,-62 v -90 q -54,63 -125.5,96.5 Q 203,-320 120,-320 v -80 q 68,0 123.5,-28 55.5,-28 100.5,-80 l 54,-64 q 12,-14 28,-21 16,-7 34,-7 h 40 q 18,0 34,7 16,7 28,21 l 54,64 q 45,52 100.5,80 55.5,28 123.5,28 v 80 q -83,0 -154.5,-33.5 Q 614,-387 560,-450 v 90 l 156,62 q 20,8 32,26.5 12,18.5 12,39.5 0,30 -21,51 -21,21 -51,21 H 400 v -20 q 0,-26 17,-43 17,-17 43,-17 h 120 q 9,0 14.5,-5.5 5.5,-5.5 5.5,-14.5 0,-9 -5.5,-14.5 Q 589,-280 580,-280 H 460 q -42,0 -71,29 -29,29 -29,71 v 20 z m 208,-480 q -33,0 -56.5,-23.5 Q 400,-687 400,-720 q 0,-33 23.5,-56.5 23.5,-23.5 56.5,-23.5 33,0 56.5,23.5 23.5,23.5 23.5,56.5 0,33 -23.5,56.5 Q 513,-640 480,-640 Z"
         id="path1-8"
         style="fill:#b6a9ad;fill-opacity:1" /></g><g
       style="fill:#9bafc3;fill-opacity:1"
       id="g25"
       transform="matrix(0.00661458,0,0,0.00661458,132.60228,93.311257)"><path
         d="m 491,-200 q 12,-1 20.5,-9.5 8.5,-8.5 8.5,-20.5 0,-14 -9,-22.5 -9,-8.5 -23,-7.5 -41,3 -87,-22.5 -46,-25.5 -58,-92.5 -2,-11 -10.5,-18 -8.5,-7 -19.5,-7 -14,0 -23,10.5 -9,10.5 -6,24.5 17,91 80,130 63,39 127,35 z M 480,-80 Q 343,-80 251.5,-174 160,-268 160,-408 160,-508 239.5,-625.5 319,-743 480,-880 641,-743 720.5,-625.5 800,-508 800,-408 800,-268 708.5,-174 617,-80 480,-80 Z m 0,-80 q 104,0 172,-70.5 68,-70.5 68,-177.5 0,-73 -60.5,-165 Q 599,-665 480,-774 361,-665 300.5,-573 240,-481 240,-408 q 0,107 68,177.5 68,70.5 172,70.5 z m 0,-320 z"
         id="path1-56"
         style="fill:#9bafc3;fill-opacity:1" /></g><text
       xml:space="preserve"
       transform="matrix(0.26458333,0,0,0.26458333,33.351193,36.538814)"
       id="text25"
       style="font-style:normal;font-variant:normal;font-weight:bold;font-stretch:normal;font-size:16px;font-family:'PT Sans';-inkscape-font-specification:'PT Sans Bold';white-space:pre;shape-inside:url(#rect25);display:inline;fill:#59604a;fill-opacity:1"><tspan
         x="45.941406"
         y="403.41211"
         id="tspan13"><tspan
           style="font-weight:normal;-inkscape-font-specification:'PT Sans'"
           id="tspan12">Currently a Ph.D. student in the Faculty </tspan></tspan><tspan
         x="45.941406"
         y="423.41211"
         id="tspan15"><tspan
           style="font-weight:normal;-inkscape-font-specification:'PT Sans'"
           id="tspan14">of Information Technology at Monash </tspan></tspan><tspan
         x="45.941406"
         y="443.41211"
         id="tspan17"><tspan
           style="font-weight:normal;-inkscape-font-specification:'PT Sans'"
           id="tspan16">University, researching electric vehicle </tspan></tspan><tspan
         x="45.941406"
         y="463.41211"
         id="tspan19"><tspan
           style="font-weight:normal;-inkscape-font-specification:'PT Sans'"
           id="tspan18">profit maximisation in V2X systems.</tspan></tspan></text><text
       xml:space="preserve"
       transform="matrix(0.26458333,0,0,0.26458333,33.160227,66.138644)"
       id="text26"
       style="font-style:normal;font-variant:normal;font-weight:bold;font-stretch:normal;font-size:16px;font-family:'PT Sans';-inkscape-font-specification:'PT Sans Bold';white-space:pre;shape-inside:url(#rect26);display:inline;fill:#59604a;fill-opacity:1"><tspan
         x="45.941406"
         y="403.41211"
         id="tspan21"><tspan
           style="font-weight:normal;-inkscape-font-specification:'PT Sans'"
           id="tspan20">A proficient user of React TypeScript, </tspan></tspan><tspan
         x="45.941406"
         y="423.41211"
         id="tspan23"><tspan
           style="font-weight:normal;-inkscape-font-specification:'PT Sans'"
           id="tspan22">with diverse experience in full-stack GIS, </tspan></tspan><tspan
         x="45.941406"
         y="443.41211"
         id="tspan25"><tspan
           style="font-weight:normal;-inkscape-font-specification:'PT Sans'"
           id="tspan24">data analytics, edTech, and machine </tspan></tspan><tspan
         x="45.941406"
         y="463.41211"
         id="tspan34"><tspan
           style="font-weight:normal;-inkscape-font-specification:'PT Sans'"
           id="tspan31">learning app development.</tspan></tspan></text><text
       xml:space="preserve"
       style="font-style:normal;font-variant:normal;font-weight:normal;font-stretch:normal;font-size:3.52778px;font-family:'PT Sans';-inkscape-font-specification:'PT Sans';text-align:center;text-anchor:middle;fill:#b2b18d;fill-opacity:1;stroke-width:0.264583"
       x="24.443731"
       y="97.965889"
       id="text27"><tspan
         sodipodi:role="line"
         id="tspan27"
         style="font-style:normal;font-variant:normal;font-weight:bold;font-stretch:normal;font-size:3.52778px;font-family:'PT Sans';-inkscape-font-specification:'PT Sans Bold';fill:#b2b18d;fill-opacity:1;stroke-width:0.264583"
         x="24.889996"
         y="97.965889">research </tspan></text><text
       xml:space="preserve"
       style="font-style:normal;font-variant:normal;font-weight:normal;font-stretch:normal;font-size:3.52778px;font-family:'PT Sans';-inkscape-font-specification:'PT Sans';text-align:center;text-anchor:middle;fill:#95adaf;fill-opacity:1;stroke-width:0.264583"
       x="50.988094"
       y="97.965889"
       id="text28"><tspan
         sodipodi:role="line"
         id="tspan28"
         style="font-style:normal;font-variant:normal;font-weight:bold;font-stretch:normal;font-size:3.52778px;font-family:'PT Sans';-inkscape-font-specification:'PT Sans Bold';fill:#95adaf;fill-opacity:1;stroke-width:0.264583"
         x="50.988094"
         y="97.965889">publications</tspan></text><text
       xml:space="preserve"
       style="font-style:normal;font-variant:normal;font-weight:normal;font-stretch:normal;font-size:3.52778px;font-family:'PT Sans';-inkscape-font-specification:'PT Sans';text-align:center;text-anchor:middle;fill:#9bafc3;fill-opacity:1;stroke-width:0.264583"
       x="79.098053"
       y="97.965889"
       id="text29"><tspan
         sodipodi:role="line"
         id="tspan29"
         style="font-style:normal;font-variant:normal;font-weight:bold;font-stretch:normal;font-size:3.52778px;font-family:'PT Sans';-inkscape-font-specification:'PT Sans Bold';fill:#9bafc3;fill-opacity:1;stroke-width:0.264583"
         x="79.098053"
         y="97.965889">works</tspan></text><text
       xml:space="preserve"
       style="font-style:normal;font-variant:normal;font-weight:normal;font-stretch:normal;font-size:3.52778px;font-family:'PT Sans';-inkscape-font-specification:'PT Sans';text-align:center;text-anchor:middle;fill:#b9adb1;fill-opacity:1;stroke-width:0.264583"
       x="105.36137"
       y="97.965889"
       id="text30"><tspan
         sodipodi:role="line"
         id="tspan30"
         style="font-style:normal;font-variant:normal;font-weight:bold;font-stretch:normal;font-size:3.52778px;font-family:'PT Sans';-inkscape-font-specification:'PT Sans Bold';fill:#b9adb1;fill-opacity:1;stroke-width:0.264583"
         x="105.36137"
         y="97.965889">blog</tspan></text><text
       xml:space="preserve"
       transform="scale(0.26458333)"
       id="text32"
       style="font-style:normal;font-variant:normal;font-weight:normal;font-stretch:normal;font-size:13.3333px;font-family:'PT Sans';-inkscape-font-specification:'PT Sans';text-align:center;white-space:pre;shape-inside:url(#rect32);display:inline;fill:#59604a;fill-opacity:1" /><text
       xml:space="preserve"
       style="font-size:4.93193px;fill:#59604a;fill-opacity:1;stroke-width:0.410995"
       x="47.955746"
       y="207.28928"
       id="text33"><tspan
         sodipodi:role="line"
         id="tspan33"
         style="font-style:normal;font-variant:normal;font-weight:bold;font-stretch:normal;font-family:'PT Sans';-inkscape-font-specification:'PT Sans Bold';fill:#59604a;fill-opacity:1;stroke-width:0.410995"
         x="47.955746"
         y="207.28928">selected works</tspan></text><rect
       style="fill:#778562;fill-opacity:1;stroke-width:0.338421"
       id="rect33"
       width="23.976871"
       height="30.475407"
       x="13.355767"
       y="26.524681"
       inkscape:transform-center-x="0.2327852"
       inkscape:transform-center-y="-29.587777" /><rect
       style="fill:#778562;fill-opacity:1;stroke-width:0.264583"
       id="rect34"
       width="21.133762"
       height="21.133762"
       x="15.183481"
       y="139.72905"
       inkscape:transform-center-x="0.20518218"
       inkscape:transform-center-y="-20.518218" /><rect
       style="fill:#778562;fill-opacity:1;stroke-width:0.264583"
       id="rect35"
       width="21.133762"
       height="21.133762"
       x="15.183481"
       y="169.0701"
       inkscape:transform-center-x="0.20518218"
       inkscape:transform-center-y="-20.518218" /><rect
       style="fill:#778562;fill-opacity:1;stroke-width:0.0815274"
       id="rect36"
       width="6.5120583"
       height="6.5120583"
       x="43.005333"
       y="50.488029"
       inkscape:transform-center-x="0.063223967"
       inkscape:transform-center-y="-6.3223875" /><rect
       style="fill:#778562;fill-opacity:1;stroke-width:0.0815274"
       id="rect37"
       width="6.5120583"
       height="6.5120583"
       x="53.260838"
       y="50.488029"
       inkscape:transform-center-x="0.063223967"
       inkscape:transform-center-y="-6.3223875" /><rect
       style="fill:#778562;fill-opacity:1;stroke-width:0.0815274"
       id="rect38"
       width="6.5120583"
       height="6.5120583"
       x="63.516342"
       y="50.488029"
       inkscape:transform-center-x="0.063223967"
       inkscape:transform-center-y="-6.3223875" /></g></svg>
