<?xml version="1.0" encoding="UTF-8" standalone="no"?>
<!-- Created with Inkscape (http://www.inkscape.org/) -->

<svg
   width="512"
   height="512"
   viewBox="0 0 135.46666 135.46667"
   version="1.1"
   id="svg5"
   xml:space="preserve"
   inkscape:version="1.2 (1:1.2.1+202207142221+cd75a1ee6d)"
   sodipodi:docname="karakter.svg"
   xmlns:inkscape="http://www.inkscape.org/namespaces/inkscape"
   xmlns:sodipodi="http://sodipodi.sourceforge.net/DTD/sodipodi-0.dtd"
   xmlns="http://www.w3.org/2000/svg"
   xmlns:svg="http://www.w3.org/2000/svg"><sodipodi:namedview
     id="namedview7"
     pagecolor="#ffffff"
     bordercolor="#000000"
     borderopacity="0.25"
     inkscape:showpageshadow="2"
     inkscape:pageopacity="0.0"
     inkscape:pagecheckerboard="0"
     inkscape:deskcolor="#d1d1d1"
     inkscape:document-units="mm"
     showgrid="false"
     inkscape:zoom="1.0973349"
     inkscape:cx="210.51003"
     inkscape:cy="214.61087"
     inkscape:window-width="1920"
     inkscape:window-height="1056"
     inkscape:window-x="0"
     inkscape:window-y="0"
     inkscape:window-maximized="1"
     inkscape:current-layer="layer1" /><defs
     id="defs2" /><g
     inkscape:label="Layer 1"
     inkscape:groupmode="layer"
     id="layer1"><path
       id="path417"
       style="fill:#ac9d93;stroke-width:0.2;stroke-linecap:round;stroke-linejoin:round"
       d="m 22.457747,0.44607108 c -0.199294,0.0158963 -0.381999,0.1691404 -0.72191,0.35445867 -1.190832,0.90053605 -2.388109,1.79640475 -3.626076,2.61026195 -0.152485,0.064998 -0.798,0.5927872 -0.996307,0.4735513 -0.02828,-0.015896 0.05465,-0.064998 0.04776,-0.096636 C 17.150574,3.722709 17.1009,3.691071 17.068672,3.6427594 17.012124,3.5617979 16.953758,3.4767967 16.896329,3.3946806 16.830543,3.298045 16.76175,3.1884185 16.699863,3.080521 16.502142,2.7373997 16.348211,2.1058798 16.151054,1.8481245 16.036143,1.7031779 15.885791,1.5855298 15.753473,1.4550988 15.422241,1.5517344 15.04464,1.5200966 14.760245,1.7402261 14.574712,1.8851736 14.432341,2.7599757 14.379314,2.9983913 14.247562,3.5880738 14.074908,4.1470279 13.881898,4.7118296 13.454412,5.7992349 12.767302,6.7039313 12.082079,7.5853134 11.873865,7.7886865 11.59924,8.284483 11.314067,8.3798648 11.262547,8.3979186 11.31777,8.2511714 11.28454,8.1962793 11.23993,8.1334487 11.173835,8.0838325 11.119049,8.0352264 10.693699,7.60963 10.223223,7.3648733 9.6465432,7.7095117 9.1342991,8.0154387 8.858921,9.0224569 8.6631345,9.5942054 8.3441527,10.750845 7.9674499,11.88292 7.6017918,13.020209 7.35142,13.812962 7.2424742,14.645126 7.1951011,15.482591 c -0.023248,0.541728 -0.019477,1.085825 -0.016329,1.628419 0.00505,0.473335 -0.00682,0.947255 0.021363,1.419304 0.05466,0.440907 0.1837111,0.866534 0.2857458,1.296832 0.019476,0.06282 0.038954,0.144875 0.060316,0.215941 0.084069,0.297838 0.2428958,0.481424 0.4248487,0.568666 0.015706,0.340159 0.05152,0.668547 0.084069,1.021397 0.1574486,1.216299 0.3245732,2.458958 0.7770919,3.585905 0.091099,0.226774 0.203565,0.441775 0.3054097,0.662265 0.6513707,1.319329 1.6269838,2.343514 2.6373648,3.2931 0.755252,0.593006 1.554667,1.110034 2.378089,1.56912 -0.100908,0.228577 -0.211608,0.450802 -0.33714,0.665009 -0.296677,0.589393 -0.512369,1.214666 -0.53216,1.903869 -3.77e-4,0.29755 0.0018,0.597265 -0.05026,0.890843 -0.163104,0.475213 -0.528641,0.792768 -0.855741,1.118049 -0.660537,0.581378 -1.352144,1.111551 -2.025826,1.672634 -0.5728103,0.600876 -1.072273,1.316222 -1.4022268,2.127046 -0.3157759,0.844044 -0.4743556,1.616445 -0.2403186,2.520721 0.2035021,0.755791 0.4894362,1.472364 0.9154469,2.09917 0.2780801,0.409491 0.4800105,0.805334 0.5140655,1.340417 0.180131,1.053484 0.316907,2.112024 0.415674,3.180963 0.137408,0.913376 0.294354,1.823647 0.506464,2.718752 0.250247,0.919804 0.581481,1.804653 0.860226,2.712683 0.3078,0.88095 0.53147,1.785731 0.72864,2.707485 0.288383,1.040774 0.580348,2.080752 0.770285,3.153376 0.190058,0.950497 0.373895,1.904679 0.615346,2.840516 0.09945,0.464378 0.165931,0.908535 0.131751,1.391837 0.01064,0.570545 0.04336,1.138993 0.117749,1.703038 0.127542,0.977797 0.292217,1.948588 0.371883,2.933319 0.07986,0.888171 0.01948,1.783204 0.03707,2.674552 0.0017,0.842239 -0.0057,1.687366 0.04461,2.528594 0.05152,0.545988 0.141679,1.082588 0.306102,1.599762 0.126097,0.540933 0.2461,1.085839 0.503447,1.570658 0.100909,0.212328 0.231022,0.434768 0.292468,0.668763 0.08269,0.311994 0.08407,0.64421 0.130307,0.964942 0.08124,1.142171 -0.08689,2.274882 -0.2412,3.400948 -0.22166,1.565886 -0.436597,3.141459 -0.497415,4.728797 -0.02262,1.00676 -0.01256,2.021898 0.142056,3.016661 0.137281,0.726112 0.364406,1.432138 0.388532,2.181868 0.04461,1.309718 0.116294,2.618508 0.210855,3.92483 0.04649,0.766632 0.110704,1.548128 0.05716,2.318213 -0.0076,0.112668 -0.03078,0.145167 -0.07282,0.236887 -0.761435,0.600877 -1.620524,1.024524 -2.378082,1.635221 -0.853918,0.629767 -1.680657,1.295207 -2.474852,2.022037 -0.82378,0.67021 -1.7075418,1.2661 -2.6381111,1.71509 -0.9926628,0.34667 -1.9446834,0.80267 -2.9253655,1.18573 -1.0169087,0.38493 -2.0394543,0.75405 -3.0440481,1.18088 -0.8722775,0.39793 -1.75432463,0.88269 -2.1641566,1.91768 -0.19294707,0.76489 -0.15462295,1.39349 -0.0232476,2.16691 0.12056793,0.79724 0.25307363,1.59485 0.62652829,2.29583 0.39933931,0.77471 0.72026381,1.60128 1.16715231,2.34335 0.5089754,0.82331 1.0656825,1.64765 1.8247611,2.18266 0.7150226,0.50553 1.4794991,0.9328 2.1384713,1.53367 0.8998911,0.96335 1.8094078,1.92635 2.6328283,2.97492 0.6433929,0.90218 1.2574051,1.86293 2.1437496,2.47479 0.126098,0.0808 0.235169,0.25711 0.38024,0.24628 0.326836,-0.0362 0.711103,-0.081 0.934365,-0.35099 0.228949,-0.28312 0.09525,-0.90855 -0.133134,-1.1663 -0.0047,-0.006 -0.0033,0.0144 -0.0053,0.0144 -0.0023,0.0144 0.0036,0.0433 -0.0068,0.0433 -0.05026,-0.0433 -0.02954,-0.14515 -0.02638,-0.21594 0.0023,-0.0808 0.03896,-0.48461 0.04649,-0.54815 0.01064,-0.11261 0.02325,-0.22028 0.03518,-0.33222 0.09525,-0.82332 0.2483,-1.64859 0.07043,-2.47478 -0.194518,-0.98431 -0.400407,-1.9652 -0.653094,-2.93348 -0.306415,-1.1083 -0.694433,-2.17962 -1.049987,-3.26791 -0.03205,-0.0361 -0.05655,-0.0809 -0.09669,-0.0809 -0.04461,-0.007 -0.143815,0.0961 -0.130307,0.0434 0.01948,-0.0809 0.103733,-0.11267 0.160151,-0.16105 0.334625,-0.28167 0.722769,-0.46438 1.085443,-0.68899 1.500853,-0.87648 3.011007,-1.73496 4.543765,-2.53538 2.0374,-1.00843 4.08771,-2.00356 6.05331,-3.18711 0.847749,-0.57849 1.446325,-1.10194 1.723482,-2.24 0.194706,-0.92803 0.229827,-1.89024 0.487551,-2.80317 0.333936,-1.488472 0.511552,-3.01118 0.775609,-4.516466 0.345621,-1.393505 0.878303,-2.72149 1.192094,-4.129944 0.359255,-1.364538 0.649889,-2.742728 0.853354,-4.149014 0.110705,-0.610987 0.242581,-1.214679 0.371128,-1.819455 0.02513,0.08088 0.04776,0.161053 0.06339,0.231827 0.08124,0.430439 0.04901,0.888171 0.227503,1.293619 0.261807,0.549598 0.633609,0.948834 1.078719,1.304881 0.475112,0.447776 0.967721,0.85394 1.519383,1.169622 0.493457,0.352437 0.95146,0.740547 1.346955,1.238799 0.759562,0.76489 1.587665,1.428965 2.41588,2.091589 0.835975,0.687537 1.676518,1.300043 2.640393,1.727376 0.310563,0.222442 0.540704,0.456436 0.649261,0.880005 0.134579,0.628328 0.162098,1.262991 0.24723,1.902152 0.193701,1.080997 0.515008,2.120029 0.844388,3.155899 0.362145,1.28069 0.836684,2.51394 1.195884,3.79628 0.560306,1.67863 1.169808,3.3361 1.627478,5.05777 0.395068,1.40968 0.784683,2.82173 1.090061,4.26124 0.31603,1.48046 0.621942,2.96271 0.907883,4.45125 0.156003,0.59293 0.436031,1.70838 0.790707,2.18272 0.113528,0.14518 0.256593,0.27084 0.3847,0.40372 0.52261,0.25278 1.088955,0.36472 1.656953,0.36906 0.641588,-0.0362 1.248156,-0.2239 1.858023,-0.44633 0.672669,-0.18345 1.348085,-0.35245 2.004673,-0.60377 0.743591,-0.28815 1.467759,-0.6341 2.201202,-0.95534 0.851108,-0.39793 1.685954,-0.83414 2.575373,-1.1148 1.204009,-0.45066 2.379501,-0.98747 3.577719,-1.45791 0.754938,-0.23689 1.527956,-0.37339 2.285861,-0.59945 0.772085,-0.17909 1.551425,-0.34015 2.307793,-0.58931 0.173407,1.21634 0.413855,2.42308 0.812583,3.57046 0.107893,0.31055 0.235862,0.61026 0.353728,0.91668 0.150541,0.29756 0.280402,0.61171 0.451304,0.89533 0.621,1.03103 1.420843,1.90569 2.163421,2.81596 0.595298,0.72979 0.717441,0.89893 1.29187,1.64497 0.923583,1.25007 1.90936,2.44324 3.056149,3.42355 0.782189,0.70055 1.653138,1.24364 2.503572,1.82452 0.843261,0.66443 1.725884,1.25332 2.598048,1.86394 0.714785,0.56694 1.405683,1.17923 2.19894,1.5981 0.570678,0.30117 0.733495,0.32861 1.334896,0.53011 0.994077,0.25638 2.01364,0.38999 3.031949,0.30115 0.440492,-0.0361 1.142475,-0.16538 1.583628,-0.24049 1.542425,-0.25278 3.066014,-0.60593 4.583833,-1.00683 1.144582,-0.31199 2.260386,-0.73426 3.361531,-1.20666 1.301835,-0.51999 2.576858,-1.12607 3.844556,-1.74739 1.837622,-0.90376 3.679769,-1.79865 5.423632,-2.92558 0.696,-0.45933 1.38663,-0.93114 2.05155,-1.44825 0.1969,-0.16106 0.73521,-0.58137 0.92526,-0.78641 0.14009,-0.14516 0.25759,-0.32572 0.38619,-0.48748 0.57684,-0.85842 0.83613,-1.91632 1.01972,-2.96388 0.16397,-1.3033 0.17731,-2.62464 0.19131,-3.93964 0.17115,-1.37574 0.29291,-2.75898 0.58808,-4.10813 0.2718,-1.22595 0.51181,-2.46916 0.57137,-3.7346 0.0106,-1.63516 -0.43515,-3.23333 -0.84356,-4.78506 -0.009,-0.0361 -0.0196,-0.065 -0.0283,-0.0961 0.24403,0.20005 0.47649,0.41816 0.71964,0.62182 0.48058,0.45427 0.94052,0.92956 1.37204,1.44666 0.40575,0.50193 0.68323,1.1148 0.99631,1.69422 0.47561,0.82512 0.9907,1.62642 1.63804,2.28694 0.57382,0.64132 1.07089,1.32908 1.42943,2.16099 0.20783,0.39 0.36466,0.70705 0.60919,1.06974 0.37647,0.55682 0.84621,1.01651 1.3084,1.47562 0.0132,0.0144 0.20622,0.18994 0.29562,0.27083 -0.0603,0.351 -0.12056,0.69909 -0.13037,1.05998 -0.0195,0.66226 0.0855,1.31456 0.13595,1.97077 0.12756,1.22262 0.20427,2.48951 0.64105,3.62931 0.10234,0.14516 0.18642,0.32427 0.30767,0.45642 0.43905,0.47884 1.07662,0.47522 1.63277,0.5915 0.74953,0.1285 1.51712,0.23832 2.2579,-0.0144 0.12892,-0.081 0.27117,-0.1285 0.38854,-0.22678 0.38601,-0.32211 0.49596,-0.8782 0.51093,-1.39184 0.0164,-0.6832 0.15285,-1.35161 0.18666,-2.03496 0.11356,-1.16795 0.29687,-2.33309 0.2804,-3.5121 0.0264,-1.54654 0.0744,-3.0933 0.14808,-4.63838 0.0573,-1.46435 0.0603,-2.93289 0.13596,-4.39746 0.0641,-1.50948 0.0856,-3.02056 0.17153,-4.52874 0.13596,-1.87651 0.34122,-3.74588 0.57382,-5.609608 0.21669,-1.778781 0.29969,-3.572319 0.4513,-5.35942 0.12754,-1.42405 0.31036,-2.847374 0.27129,-4.282909 0.0106,-1.274336 0.0296,-2.548382 0.0883,-3.820552 0.0634,-1.248552 0.12611,-2.497177 0.1927,-3.745874 0.13597,-1.728748 0.36404,-3.44558 0.59034,-5.161256 0.22731,-1.546537 0.4224,-3.096105 0.58958,-4.652101 0.15639,-1.12939 0.35185,-2.257982 0.43548,-3.398204 0.0233,-0.332217 0.0296,-0.665154 0.0433,-0.997224 0.0157,-0.354605 0.0296,-0.707042 0.0433,-1.061719 0.0566,-1.806168 0.155,-3.610099 0.43164,-5.392363 0.21242,-1.784431 0.45224,-3.566695 0.53518,-5.367303 0.0689,-1.451421 0.0981,-2.906814 0.21764,-4.354912 0.13595,-1.52877 0.23228,-3.072632 0.54352,-4.571287 0.2591,-1.370966 0.40782,-2.76526 0.59035,-4.152477 0.0868,-0.825989 0.17894,-1.656745 0.18816,-2.491255 0.0119,-0.998814 -0.0868,-1.9938 -0.14966,-2.988135 -0.13871,-1.700871 -0.33186,-3.393725 -0.51249,-5.089253 -0.13871,-1.607735 -0.28298,-3.213117 -0.28731,-4.831013 -0.005,-0.666743 0.006,-1.327426 0.0659,-1.992485 0.14739,-1.653797 -0.0225,0.334744 0.12195,-0.902081 0.005,-0.04478 -0.003,-0.08096 -0.006,-0.128693 0.0689,-0.314015 0.99829,-0.334743 1.23892,-0.446325 0.62828,-0.161051 1.27184,-0.193478 1.90489,-0.322104 0.75933,-0.112514 1.52148,-0.112514 2.28585,-0.08096 0.77976,0.01805 1.55961,0.06284 2.33955,0.04478 1.11797,-0.112448 1.81041,-0.446324 1.83459,-1.884694 -0.0296,-0.984319 -0.0766,-1.966391 -0.12755,-2.949093 -0.0371,-0.817047 0.0307,-1.668826 -0.31069,-2.415503 -0.0689,-0.09627 -0.1261,-0.218685 -0.20406,-0.314016 -0.31056,-0.377064 -0.75963,-0.568665 -1.13463,-0.841342 -0.6935,-0.375259 -1.41104,-0.625359 -2.1861,-0.633448 -0.88754,-0.04478 -1.77694,-0.01805 -2.66532,-0.03611 -1.09651,9.4e-5 -2.19315,4.47e-4 -3.28971,9.02e-4 -1.34501,8.09e-4 -2.6901,0.0023 -4.03504,0 -1.90609,-0.0063 -3.81192,-0.03611 -5.71767,-0.06282 -3.253,-0.08096 -6.50539,-0.179974 -9.7573,-0.301451 -1.89565,-0.09627 -3.78047,-0.299643 -5.66553,-0.548009 -1.508471,-0.03611 -3.016354,-0.09627 -4.524108,-0.161053 -2.28986,-0.06282 -4.581198,-0.04478 -6.870458,-0.144875 -2.020078,-0.09721 -4.040285,-0.183586 -6.059358,-0.30145 -1.777872,-0.144848 -3.554415,-0.251012 -5.33578,-0.311318 C 75.713263,12.00237 73.261045,11.630721 70.806362,11.277648 66.415694,10.676555 62.010136,10.246625 57.599875,9.8857938 55.643352,9.7409197 54.470268,9.6392327 52.522443,9.5924329 c -1.52159,-0.036108 -3.044228,0.00542 -4.566438,0.00358 -0.02828,-0.364426 -0.255775,-0.7090644 -0.703826,-0.7567591 -0.32093,-0.036108 -0.642689,-0.062821 -0.963789,-0.00871 -0.722769,0.1286934 -1.47968,0.3140165 -1.909429,1.0664769 -0.06157,0.1448753 -0.140108,0.2735733 -0.185972,0.4237913 -0.232343,0.744156 -0.04084,1.493361 0.105115,2.23059 0.147586,0.762154 0.32627,1.5127 0.746883,2.143571 0.369246,0.615464 0.812289,1.166359 1.373446,1.556162 0.524431,0.311344 1.064556,0.446324 1.65619,0.381543 0.598696,-0.03611 1.199244,-0.08096 1.781687,-0.246562 0.771067,-0.236667 1.538146,-0.497601 2.325924,-0.652371 0.582169,-0.112447 1.17443,-0.161051 1.763547,-0.08096 0.04089,-0.01805 0.007,-0.144874 0.03522,-0.112514 0.146453,0.167407 -4.02e-4,0.587587 0.04338,0.772957 -0.04905,0.874629 -0.13031,1.750075 -0.110728,2.628395 -0.0023,0.947255 -0.0059,1.893058 0.0012,2.839504 0.01571,1.441879 0.03202,2.887993 0.184399,4.321157 0.04467,0.350921 0.09253,0.70278 0.145884,1.051988 -0.349887,0.161053 -0.702563,0.317628 -1.050678,0.485036 -0.74195,0.359009 -1.507618,0.62991 -2.280588,0.887232 -0.947396,0.31582 -1.883293,0.668548 -2.796856,1.097069 -1.445633,0.603765 -2.94322,0.993946 -4.419044,1.486967 -1.286137,0.440042 -2.590815,0.841322 -3.915602,1.090555 -0.789031,0.112665 -1.581691,0.0809 -2.375068,0.0809 -0.663749,8.66e-4 -1.327472,0.0057 -1.991063,-0.0072 -0.587888,-0.01444 -1.1799,-0.04334 -1.752955,-0.217384 -0.72973,-0.194996 -1.461409,-0.357493 -2.201948,-0.487779 -1.212,-0.234862 -2.399412,-0.605571 -3.590571,-0.948865 -0.849012,-0.230385 -1.700695,-0.428342 -2.556486,-0.613661 0.340155,-0.320371 0.654902,-0.686602 0.978095,-1.097069 0.422774,-0.560578 0.875915,-1.101931 1.224602,-1.730012 0.234791,-0.423792 0.278079,-0.572278 0.45356,-1.016538 0.408702,-1.079345 0.464746,-2.24714 0.549565,-3.402703 0.08406,-1.14701 0.142243,-2.29636 0.168632,-3.447061 0.07672,-1.155019 -0.162099,-2.260011 -0.47932,-3.343403 0.07986,-0.144874 0.128924,-0.314014 0.128924,-0.530027 0.0157,-0.368904 -0.02325,-0.740559 0,-1.108322 0.02954,-0.465245 0.18836,-1.480483 0.253263,-1.890805 0.09807,-0.620015 0.301138,-1.812076 0.404492,-2.421621 0.367736,-2.0481017 0.688559,-4.1075484 0.939554,-6.1787678 0.121887,-0.8747247 0.209785,-2.1841663 -0.851958,-2.3381699 -0.197912,-0.032509 -0.396073,0.048385 -0.594047,0.080962 -0.173974,0.080962 -0.350962,0.1449476 -0.521668,0.2432396 -0.417937,0.2191175 -0.820148,0.4768012 -1.232877,0.7087741 -0.636109,0.3577095 -1.27016,0.7168636 -1.903373,1.0809655 -0.176109,0.096636 -0.351967,0.1965115 -0.529143,0.2898933 -0.274374,0.1449467 -0.555093,0.2900385 -0.839067,0.4172196 -0.0055,-0.064998 -0.01064,-0.1127322 -0.01256,-0.161052 -0.02513,-0.510674 -0.02262,-1.0213548 -0.02262,-1.5320336 -0.0195,-0.3366582 0.1135,-1.5030099 -0.145917,-1.72821506 C 22.878424,0.55284822 22.663111,0.43519909 22.463811,0.45289401 Z M 21.961903,1.4384275 c 7.27e-4,3.241e-4 0.0017,0.00397 0.0014,0.011542 -0.0014,0.064998 -0.0014,0.1288424 -0.0014,0.1836561 -0.02262,-0.064998 -0.0044,-0.1981011 0,-0.1965124 z m -0.0023,1.2017821 c -0.0013,0.7072581 -0.07439,2.3344712 0.256216,2.9004089 0.128924,0.2223674 0.344742,0.3577085 0.517018,0.5364554 0.193702,0.015896 0.38627,0.064998 0.580476,0.064998 0.12327,-0.00639 0.60724,-0.2336351 0.69623,-0.273789 0.499049,-0.2271343 0.989578,-0.4784624 1.469478,-0.7555894 1.005838,-0.5783431 2.013839,-1.1518419 3.024396,-1.719554 -0.0087,0.080962 -0.01948,0.1755686 -0.02324,0.2126168 C 28.23307,5.6471847 27.916414,7.6766896 27.554154,9.6950942 27.385837,10.689048 27.191005,11.685608 27.051462,12.689455 26.99304,12.528404 26.935108,12.370889 26.876797,12.210776 26.617817,11.566495 26.43844,10.86076 26.056649,10.290541 25.739552,9.8172056 25.607801,9.7398574 25.209315,9.3738862 24.551994,8.8115023 23.785936,8.5523383 23.00812,8.3170361 22.645473,8.1721601 22.281437,8.0317627 21.915811,7.8985888 21.850032,7.8805349 21.784059,7.8538121 21.718467,7.8357485 21.517916,7.7729276 21.343,7.7909718 21.198369,7.8538024 21.027978,7.6702169 20.773018,7.5784237 20.458378,7.6819162 c -1.272672,0.1691413 -2.52036,0.4994072 -3.767441,0.8314418 -1.313046,0.3464437 -2.59792,0.8134517 -3.785585,1.549779 -1.232324,0.762153 -1.963594,1.992759 -2.719004,3.293911 -0.6462073,1.085824 -1.1363232,2.262979 -1.5458282,3.482607 -0.00202,-0.417508 -0.00311,-0.834141 0.013829,-1.251665 0.037069,-0.67483 0.1191229,-1.346773 0.318981,-1.987176 0.3617063,-1.12767 0.7380382,-2.248941 1.0515292,-3.396587 0.05843,-0.175497 0.114911,-0.3509214 0.176861,-0.525478 0.02954,-0.080962 0.07282,-0.1628574 0.106558,-0.2447558 0.0012,6.27e-4 0.0018,0.00116 0.0031,0.00164 0.437415,0.3032557 0.645504,0.5345059 1.204146,0.5219388 0.723555,-0.018054 1.207375,-0.707257 1.657712,-1.2533761 0.800527,-1.0326408 1.589034,-2.0991177 2.071196,-3.3809437 0.124714,-0.3689027 0.242204,-0.73624 0.347756,-1.1099532 0.06157,0.096636 0.126099,0.1949237 0.200236,0.2851273 0.274688,0.3463702 0.491886,0.6895631 0.889662,0.8795835 0.79337,0.3801714 1.477783,-0.064998 2.154349,-0.5106721 1.062737,-0.7007592 2.098708,-1.4563176 3.122654,-2.2295865 z m 6.583968,0.064998 c 0.0037,-8.088e-4 0.0057,0 0.0061,0.00435 0.0037,0.048386 0.0033,0.096636 7.54e-4,0.1675527 -0.0157,-0.048386 -0.02828,-0.096636 -0.03707,-0.1288424 -0.0023,-0.012229 0.01823,-0.032508 0.02953,-0.032508 z m -7.55757,6.5497884 c 0.08972,0.096268 0.205513,0.1646637 0.351465,0.2096571 0.04649,0.018054 0.09387,0.036108 0.140611,0.044777 0.38891,0.1448741 0.771224,0.2978376 1.158739,0.4400414 0.587198,0.1772295 1.174019,0.3446375 1.677352,0.7603555 0.201994,0.170947 0.35203,0.273572 0.513187,0.4976 0.343923,0.473336 0.461539,1.114801 0.699208,1.654514 0.439425,1.211438 0.905352,2.411633 1.291044,3.649344 0.268531,0.895335 0.472032,1.803439 0.402041,2.760494 -0.02513,1.118036 -0.08124,2.234814 -0.163291,3.349614 -0.07125,0.966597 -0.09807,1.947766 -0.427866,2.857047 -0.106556,0.279856 -0.166055,0.465174 -0.309116,0.726159 -0.315463,0.578559 -0.736625,1.066476 -1.121036,1.581987 -0.255775,0.326655 -0.510736,0.69108 -0.818603,0.9585 -0.349139,0.303256 -0.754158,0.51739 -1.139116,0.747759 -0.631964,0.395048 -1.244375,0.862035 -1.961584,1.023015 -0.794628,0.128694 -1.600313,0.04478 -2.400011,0.03611 C 17.912519,30.48913 16.952841,30.362103 16.057932,29.8996 14.889248,29.348917 13.755144,28.683302 12.698659,27.887312 11.83438,27.081965 10.989747,26.216333 10.424136,25.09811 10.347415,24.937059 10.259212,24.780484 10.19054,24.614882 9.7847911,23.630562 9.6525363,22.532676 9.5087162,21.467645 9.485471,21.216606 9.4189987,20.609207 9.4189987,20.33674 c 0.00287,-0.763952 0.1972196,-1.511082 0.3786686,-2.236613 0.4099587,-1.332285 0.9063357,-2.621743 1.6048107,-3.792782 0.611826,-1.056756 1.202041,-2.131328 2.202709,-2.751849 1.06246,-0.678443 2.237641,-1.061623 3.414444,-1.387001 0.800381,-0.2123292 1.605294,-0.4481306 2.415119,-0.6091825 0.348134,-0.06284 0.702727,-0.096268 1.051534,-0.161052 0.124715,-0.018054 0.247734,-0.044777 0.371882,-0.080962 0.04461,-0.018054 0.08689,-0.036108 0.127544,-0.044777 z m 25.367535,1.282345 c 0.03393,0.389631 0.287818,0.755856 0.769584,0.755856 h 7.48e-4 c 1.797267,0.03611 3.596407,-0.04478 5.393408,0 1.880716,0.04478 3.096943,0.161053 4.986723,0.28975 4.382561,0.360815 8.760986,0.786455 13.124084,1.383851 2.477728,0.359008 4.953225,0.73156 7.44494,0.93429 1.78321,0.06284 3.561352,0.173692 5.341251,0.311345 2.032278,0.112447 4.065382,0.209656 6.098667,0.303254 2.29648,0.09627 4.595326,0.08096 6.892389,0.144875 1.510764,0.06282 3.021675,0.128694 4.53318,0.161053 1.87102,0.259128 3.74439,0.44813 5.62698,0.546205 3.2643,0.128694 6.52889,0.228579 9.79431,0.303255 1.91397,0.04478 3.82836,0.06284 5.74262,0.06284 1.34653,0.0023 2.693,8.08e-4 4.03959,0 1.09638,-4.49e-4 2.19333,-8.08e-4 3.28971,-8.08e-4 0.86276,0.01805 1.72639,-0.03611 2.58822,0.01805 0.58783,-0.0061 1.11656,0.189869 1.63806,0.473337 0.23744,0.181778 0.51463,0.307731 0.74461,0.502078 0.0119,0.0087 0.006,0.06284 0.005,0.06284 0.0378,0.515584 0.0409,1.042276 0.0634,1.562649 0.0503,0.97298 0.0967,1.946862 0.1261,2.921113 -0.005,0.08096 0.005,0.169141 -0.0119,0.249234 -0.0195,0.0972 -0.0634,-0.09627 -0.076,-0.112447 -0.12611,-0.04478 -0.26478,-6.29e-4 -0.39691,0.0078 -0.73223,0.0087 -1.46461,-0.03611 -2.19665,-0.04478 -0.83599,-0.03611 -1.66847,-0.03611 -2.49905,0.09627 -0.67565,0.128693 -1.35762,0.187196 -2.02812,0.348247 -0.52964,0.169143 -1.13435,0.164665 -1.60402,0.533569 -0.13459,0.112514 -0.24503,0.248366 -0.36731,0.372515 -0.0981,0.212329 -0.21958,0.412091 -0.29629,0.636192 -0.32344,0.944105 -0.31617,2.566676 -0.31139,3.581681 0.005,1.669362 0.15111,3.326842 0.29404,4.985855 0.17893,1.692854 0.37403,3.382387 0.5125,5.080514 0.0584,0.955336 0.15531,1.911901 0.14294,2.871715 -0.0106,0.752251 -0.0995,1.503058 -0.1777,2.248592 -0.18037,1.333918 -0.31451,2.676143 -0.56777,3.994387 -0.32457,1.561052 -0.42786,3.168038 -0.56911,4.760866 -0.12327,1.473953 -0.15317,2.955562 -0.22291,4.433994 -0.0813,1.754676 -0.31741,3.490863 -0.52456,5.229867 -0.28354,1.838018 -0.38551,3.697848 -0.44369,5.560133 -0.0138,0.348103 -0.0283,0.695485 -0.0439,1.043879 -0.0138,0.332214 -0.0182,0.662263 -0.0421,0.992313 -0.0786,1.079483 -0.27161,2.149651 -0.41958,3.217652 -0.16774,1.549785 -0.36088,3.095815 -0.58732,4.63643 -0.23353,1.758213 -0.46492,3.517295 -0.60472,5.289086 -0.0689,1.266248 -0.13175,2.533572 -0.19647,3.800546 -0.0615,1.299966 -0.0799,2.600377 -0.0911,3.901359 0.039,1.383898 -0.14082,2.75486 -0.26377,4.127351 -0.15412,1.765429 -0.22732,3.539459 -0.44439,5.296947 -0.23674,1.894929 -0.44313,3.795419 -0.58274,5.703279 -0.0897,1.52718 -0.11072,3.05898 -0.17535,4.58797 -0.0759,1.46586 -0.0767,2.93549 -0.13597,4.40272 -0.0744,1.55946 -0.12193,3.11964 -0.14965,4.6807 0.0138,1.12772 -0.16229,2.24151 -0.27128,3.3584 -0.0465,0.72618 -0.17222,1.43864 -0.1951,2.16705 8.4e-4,0.0433 -0.005,0.081 -0.007,0.11262 -0.49038,0.081 -0.98313,-9.4e-4 -1.46874,-0.0808 -0.0491,-0.0362 -1.16589,-0.11261 -0.92975,-0.2954 -0.23039,-0.95208 -0.31691,-1.9394 -0.41875,-2.91858 -0.0378,-0.59727 -0.15036,-1.19208 -0.12472,-1.79347 0.0132,-0.2932 0.0812,-0.58786 0.1303,-0.87638 0.15878,-0.86658 -0.31985,-1.22596 -0.80429,-1.70651 -0.40682,-0.40588 -0.828,-0.8054 -1.15651,-1.30163 -0.13728,-0.208 -0.3561,-0.63627 -0.46714,-0.84585 -0.41944,-0.95049 -0.99784,-1.74933 -1.65619,-2.48866 -0.57155,-0.57704 -1.02337,-1.28235 -1.43924,-2.00888 -0.33426,-0.66516 -0.6856,-1.31615 -1.12861,-1.8924 -0.48034,-0.57849 -0.99351,-1.11314 -1.52998,-1.6205 -0.47592,-0.42393 -0.94346,-0.85394 -1.48082,-1.16796 -0.25748,-0.14516 -0.53323,-0.19355 -0.81187,-0.22677 -0.39533,-1.13415 -0.85029,-2.241 -1.35691,-3.31653 -0.89612,-1.687143 -1.76442,-3.399194 -2.75831,-5.013693 -0.16116,-0.226051 -0.31182,-0.46438 -0.48378,-0.678878 -0.41272,-0.5171 -0.85827,-0.953605 -1.321306,-1.407941 -0.645123,-0.634101 -1.303513,-1.250139 -1.96688,-1.859617 -0.878306,-0.870117 -1.849106,-1.578746 -2.852051,-2.237325 -0.83807,-0.539478 -1.724137,-0.985814 -2.618459,-1.388581 -0.724968,-0.328618 -1.485578,-0.487484 -2.258654,-0.556816 -0.01636,-9.68e-4 -0.03202,-0.0029 -0.04907,-0.0048 0.393307,-0.470881 0.200864,-1.422531 -0.57758,-1.422531 -1.670844,-0.04335 -3.337436,0.04335 -5.004878,0.161053 -1.154255,0.112668 -2.316973,0.23472 -3.447699,0.538046 -1.210451,0.323548 -2.386957,0.803523 -3.555804,1.282348 -1.243648,0.562601 -2.539718,0.994046 -3.716039,1.736916 -0.50018,0.315604 -0.756108,0.542371 -1.214785,0.91352 -1.226437,1.016435 -2.27467,2.273869 -3.397813,3.429404 -1.006529,1.119562 -2.027426,2.276752 -2.803649,3.628579 -0.169897,0.296099 -0.315841,0.609536 -0.473981,0.913375 -0.446647,0.856679 -0.774754,1.752661 -1.039344,2.671021 -0.09253,-0.007 -0.184717,-0.0217 -0.277318,-0.0361 -0.983556,-0.065 -1.968081,-0.065 -2.952582,-0.065 -0.990292,0.007 -1.971649,-0.17983 -2.955608,-0.2896 -0.535927,-3.6e-4 -1.285015,-0.20944 -1.805864,-0.0434 -0.151227,0.0434 -0.291203,0.12855 -0.43697,0.2015 -0.474229,0.37265 -0.640888,0.957 -0.771777,1.56588 -0.0767,0.35894 -0.0083,0.21234 -0.119119,0.40589 -0.0023,-0.0361 0.02258,-0.0961 -0.007,-0.11266 -0.03899,-0.0144 -0.08556,0.0361 -0.127545,0.0361 -0.06736,0.0144 -0.134575,0.0361 -0.203376,0.0433 -0.23052,0.0434 -0.45362,0.0809 -0.687862,0.065 -0.233723,-0.065 -0.590466,0.0144 -0.808081,-0.0961 -0.01324,-0.007 0.03072,-0.0144 0.03072,-0.0361 0.0012,-0.0361 -0.0163,-0.0434 -0.02517,-0.0809 -0.373888,-0.72343 -0.366479,-1.65031 -0.416549,-2.46764 -0.02138,-1.301634 -0.178938,-2.590919 -0.293294,-3.88388 -0.06736,-1.12925 -0.260678,-2.243395 -0.480705,-3.344545 -0.20997,-1.509492 -0.506207,-2.998249 -0.761981,-4.49733 -0.241015,-1.485209 -0.354295,-2.99144 -0.532855,-4.486912 -0.239369,-1.324241 -0.420066,-2.657661 -0.566896,-3.999595 -0.140109,-1.142171 -0.193136,-2.291421 -0.218456,-3.442619 -0.05341,-1.219593 -0.08972,-2.435502 -0.272866,-3.638917 -0.137281,-0.737879 -0.206895,-1.488541 -0.30384,-2.233138 -0.09387,-0.595822 -0.09953,-1.203415 -0.15726,-1.803786 -0.09387,-0.80714 -0.517269,-1.369378 -1.137723,-1.710043 -0.338898,-0.145163 -0.705938,-0.128557 -1.015224,-0.361104 0.07439,-0.22244 -0.564456,-1.330668 -0.664454,-1.498148 -0.448785,-0.641319 -0.895542,-1.288779 -1.405988,-1.867267 -0.102291,-0.145165 -0.255023,-0.270829 -0.360575,-0.426826 0.110705,-0.03611 0.218267,-0.08089 0.327212,-0.112664 0.840882,-0.233995 1.676857,-0.499045 2.535324,-0.633376 0.666018,-0.0975 1.334063,-0.165385 1.998616,-0.270828 0.541962,-0.128558 0.881388,-0.476657 0.919933,-1.15192 0.02137,-0.369049 -0.229262,-0.748641 -0.370439,-1.059986 -0.224109,-0.607376 -0.276509,-1.25173 -0.238121,-1.902871 0.03896,-0.560435 0.194896,-0.742359 0.554151,-1.058468 0.06421,-0.04333 0.124715,-0.09605 0.192004,-0.128558 0.326457,-0.18344 0.705462,-0.296105 1.044655,-0.436214 1.791566,-0.74149 -0.612515,0.246274 1.096092,-0.454268 0.615907,-0.30766 1.464214,-0.412381 1.901857,-1.077823 0.37208,-0.564043 0.390669,-0.960103 0.518533,-1.61175 0.165926,-1.478938 0.145565,-2.972464 0.239691,-4.457611 0.06582,-1.329008 0.18006,-2.656496 0.439238,-3.955315 0.21368,-0.840432 0.37559,-1.686355 0.445949,-2.557987 0.06582,-0.97462 0.02139,-1.953644 0.07043,-2.928118 0.106593,-0.755864 0.216198,-1.506238 0.274375,-2.268743 0.05471,-0.868384 0.133134,-1.733516 0.181455,-2.602332 0.07043,-0.898932 0.01383,-1.794686 -0.1452,-2.676358 -0.05022,-0.218828 -0.106592,-0.436213 -0.166376,-0.650565 0.147717,-0.278915 0.225249,-0.601092 0.218455,-1.008433 3.91e-4,-0.554294 0.0023,-1.108407 -0.02635,-1.660456 -0.04645,-0.678442 -0.107892,-1.372505 -0.492073,-1.921044 -0.119119,-0.112447 -0.219023,-0.257322 -0.359057,-0.330265 -0.229139,-0.112448 -0.445277,-0.128693 -0.654598,-0.08096 -0.02954,-0.212401 -0.06157,-0.426536 -0.08828,-0.639803 -0.14098,-1.361261 -0.156059,-2.733044 -0.170074,-4.101418 -0.007,-0.937621 -0.0036,-1.876771 -7.44e-4,-2.815202 -0.0182,-0.844036 0.06157,-1.683943 0.107892,-2.52501 0.04905,-0.790948 -0.007,-1.591616 -0.604728,-2.104428 -0.10092,-0.08096 -0.221729,-0.128693 -0.332552,-0.199762 -0.841039,-0.293361 -1.742713,-0.195284 -2.598074,-0.04478 -0.836395,0.161053 -1.650529,0.436431 -2.468786,0.688337 -0.476619,0.144874 -0.968134,0.170946 -1.457377,0.191673 -0.328971,0.03611 -0.625335,0.01805 -0.909415,-0.179973 -0.347254,-0.269022 -0.628985,-0.621822 -0.858687,-1.021398 -0.315652,-0.457085 -0.422398,-1.005197 -0.528328,-1.56264 -0.02136,-0.386958 -0.27764,-0.919804 -0.179124,-1.306467 0.0076,-0.03611 0.09386,-0.144876 0.107881,-0.165602 0.02325,-0.03611 0.03895,-0.06282 0.07043,-0.08096 0.01319,-0.0054 0.01383,0.03611 0.02826,0.03611 0.04336,-9.67e-4 0.08551,-0.03611 0.127541,-0.03611 0.159397,-0.04478 0.317097,-0.08096 0.47775,-0.112447 z m -22.956165,7.178022 a 1.7808147,2.0470202 0 0 0 -1.755983,2.008864 1.7808147,2.0470202 0 0 0 1.690215,2.081843 l 0.228256,-0.0036 a 1.7808147,2.0470202 0 0 0 1.641094,-2.133944 1.7808147,2.0470202 0 0 0 -1.803619,-1.953254 z m -5.901376,0.868332 a 1.7808147,2.0470202 0 0 0 -1.755977,2.008959 1.7808147,2.0470202 0 0 0 1.690207,2.082832 l 0.228256,-0.0044 a 1.7808147,2.0470202 0 0 0 1.641095,-2.134037 1.7808147,2.0470202 0 0 0 -1.803619,-1.953348 z m 45.699948,2.6554 c -0.388222,0.01805 -0.764332,0.373453 -0.69318,1.000423 0.308621,3.301205 0.665705,6.596825 1.068073,9.884799 -0.798,0.358937 -1.78321,0.674543 -1.019717,2.06703 0.148083,0.270829 1.042702,0.333661 1.325101,0.365437 0.597118,4.726201 1.485981,9.396139 2.411348,14.049397 0.230521,1.158276 1.656919,0.782873 1.426387,-0.375549 -0.880544,-4.426917 -1.728319,-8.869071 -2.318358,-13.361277 0.941238,0.311273 1.855142,0.764892 2.741678,1.216343 1.349622,0.68682 1.598494,0.850328 2.948033,1.617889 2.658792,1.665123 5.171832,3.611328 7.777546,5.380305 0.21959,0.145163 0.439492,0.297548 0.659124,0.446323 0.890784,0.603766 1.633833,-0.842238 0.74305,-1.448243 -0.219582,-0.145164 -0.438861,-0.297549 -0.658426,-0.446325 -2.636891,-1.789558 -5.177582,-3.763351 -7.872027,-5.440173 -1.978209,-1.12455 -4.153341,-2.424596 -6.332254,-3.055155 0.44426,-0.189941 0.886583,-0.388548 1.31977,-0.609544 0.701005,-0.372658 1.411284,-0.729718 2.07348,-1.188913 0.780298,-0.540789 1.490672,-1.204966 2.222354,-1.826383 1.519709,-1.372512 3.007131,-2.82753 4.661685,-3.98138 0.932119,-0.515584 0.298625,-2.030558 -0.633442,-1.515855 -0.138724,0.08096 -0.28286,0.16914 -0.418003,0.265483 -0.93241,0.664936 -1.78639,1.459518 -2.650956,2.233102 -1.045089,0.934378 -0.866115,0.774749 -1.863321,1.675213 -0.70007,0.591198 -1.376387,1.230785 -2.123349,1.745661 -0.598453,0.412092 -1.248016,0.729763 -1.880691,1.064859 -0.373652,0.188063 -0.753308,0.35901 -1.135339,0.523674 -0.383755,-3.162541 -0.72426,-6.332094 -1.021264,-9.506688 -0.06346,-0.552489 -0.4148,-0.79905 -0.757526,-0.782851 z m 44.153397,2.518165 c -0.42045,0.01805 -0.84145,0.03611 -1.26091,0.08096 -0.72746,0.06284 -1.45359,0.112447 -2.18383,0.128694 -1.32314,0.09627 -2.64133,0.26541 -3.945836,0.539922 -0.849293,0.170946 -1.703736,0.323909 -2.547409,0.530028 -0.282536,0.06284 -1.032611,0.267289 -1.332667,0.399525 -0.05646,0.01805 -0.109179,0.04478 -0.163281,0.08096 -0.431515,-0.08096 -0.923275,0.265483 -0.854183,0.97137 0.229573,3.179453 0.522234,6.351591 0.826161,9.522517 0.181447,2.242454 0.269025,4.492493 0.461912,6.733864 0.0689,0.850327 0.225048,1.826175 1.048451,2.131524 0.494213,0.183441 0.951731,-0.0072 1.428657,-0.128558 1.261615,-0.350993 2.487725,-0.842238 3.731155,-1.266175 0.72951,-0.20583 1.4409,-0.483157 2.14905,-0.770234 0.2845,-0.128557 0.57967,-0.214496 0.87536,-0.29755 1.00403,-0.285272 0.65256,-1.918545 -0.35145,-1.632767 -0.34097,0.09605 -0.68183,0.20005 -1.0106,0.344493 -0.68473,0.278772 -1.37204,0.544545 -2.07798,0.744162 -1.21326,0.413826 -2.410469,0.892649 -3.640463,1.238875 -0.04089,0.0072 -0.507462,0.065 -0.519215,0.218829 -0.0035,0.04333 0.05342,0.09605 0.04211,0.145165 -0.0061,0.03611 -0.05855,-3.61e-4 -0.07125,-0.03611 -0.107892,-0.232551 -0.123273,-0.657209 -0.147397,-0.878277 -0.193521,-2.247653 -0.279655,-4.504625 -0.464242,-6.753219 -0.01818,-0.185608 -0.03515,-0.370492 -0.0515,-0.5561 1.320618,-0.161052 2.630535,-0.444157 3.942827,-0.676709 1.18326,-0.200051 2.37542,-0.310549 3.56258,-0.472323 1.02715,-0.145164 0.85476,-1.809925 -0.17234,-1.670106 -1.20401,0.164664 -2.4133,0.277329 -3.61324,0.481713 -1.291174,0.228218 -2.57929,0.502656 -3.87781,0.668764 -0.205005,-2.199144 -0.398152,-4.400036 -0.563948,-6.603715 0.0214,-4.48e-4 0.0421,-0.0013 0.06333,-0.007 0.813556,-0.218685 0.353724,-0.128694 0.32652,-0.128694 0.01061,-0.0063 0.178941,-0.04478 0.786927,-0.195284 0.817487,-0.197957 1.645397,-0.344639 2.468041,-0.510168 1.24942,-0.260934 2.51142,-0.43188 3.77879,-0.51739 0.74219,-0.01805 1.48052,-0.06282 2.22011,-0.128693 0.39651,-0.03611 0.79392,-0.04478 1.19125,-0.06282 1.03358,-0.04478 0.9806,-1.723896 -0.0534,-1.680339 z m -26.94816,0.69108 c -0.434273,-0.01805 -0.876761,0.403136 -0.731694,1.089061 0.458715,2.706681 0.777415,5.441531 1.182288,8.159089 0.401354,2.604138 1.141365,5.160896 2.336505,7.433324 0.222418,0.423935 0.481964,0.819705 0.722604,1.229126 1.051534,1.530429 2.20486,2.626741 3.886133,3.059416 0.205196,0.04333 0.415429,0.08089 0.622818,0.112664 1.026033,0.09751 1.885531,-0.09605 2.57992,-1.063234 0.480954,-0.672376 0.591595,-1.224288 0.85266,-2.027021 0.586062,-2.585864 0.635163,-5.27616 0.691614,-7.932296 0.09395,-2.107401 -0.04089,-4.200937 -0.290269,-6.286558 -0.09525,-0.742357 -0.04332,-0.381542 -0.153425,-1.0842 -0.183909,-1.169507 -1.623832,-0.871935 -1.44001,0.299645 0.102333,0.644281 0.05342,0.305927 0.144386,1.014918 0.240064,1.995821 0.369748,3.999493 0.277516,6.016256 -0.0515,2.476524 -0.09525,4.982872 -0.605428,7.402268 -0.178932,0.597266 -0.410201,1.695384 -1.027277,1.934073 -0.25113,0.09605 -0.551638,0.065 -0.808084,0.065 -1.608041,-0.264328 -2.492985,-0.993974 -3.521033,-2.458972 -0.214876,-0.361105 -0.44721,-0.707043 -0.644798,-1.080929 -1.118668,-2.112819 -1.810768,-4.493288 -2.182293,-6.919184 -0.410849,-2.755416 -0.730761,-5.528962 -1.202616,-8.271993 -0.09951,-0.468785 -0.392238,-0.681186 -0.689424,-0.692885 z m -24.403749,3.666707 c 0.01064,-0.0031 -0.0059,0.03611 -0.0163,0.03611 -0.0195,0.003 -0.039,0.0046 -0.06027,0.007 -6.38e-4,-0.0028 -9.57e-4,-0.006 -0.0012,-0.0087 0.02517,-0.0087 0.05152,-0.01805 0.07859,-0.03611 z m -1.432377,0.71354 c 0.109309,0.464307 0.232092,0.921515 0.389285,1.369364 0.09383,0.267217 0.184032,0.536311 0.274376,0.805341 -0.364529,0.187196 -0.733798,0.360815 -1.095395,0.564188 -0.7872,0.43643 -1.586157,0.848537 -2.390172,1.243657 -0.676894,0.31777 -1.325789,0.697652 -1.975935,1.079339 -0.642845,0.306216 -1.284039,0.617488 -1.924546,0.929553 -0.872705,0.412381 -1.774694,0.739686 -2.670628,1.077751 -1.119777,0.365437 -2.261596,0.642764 -3.403862,0.900521 -1.071149,0.212329 -2.159646,0.265772 -3.244347,0.296104 -1.052513,0.01444 -2.105607,0.01444 -3.158202,0.0072 -0.990421,-0.01443 -1.53874,0.332216 -2.142236,1.196916 -0.431508,0.717873 -0.757758,1.507897 -1.087824,2.290409 -0.166056,0.4911 -0.451299,0.694764 -0.866955,0.842237 -0.390858,0.09606 -0.786234,0.0809 -1.17696,0.189942 -0.140108,0.0975 -0.301327,0.161052 -0.41957,0.289605 -0.564392,0.61532 -0.518841,1.874996 -0.54881,2.698096 -0.08828,1.325757 0.100908,2.631942 0.343861,3.922237 0.180069,0.93916 0.507219,1.828847 0.755103,2.74475 0.112086,0.413826 0.19345,0.808945 0.285809,1.229126 0.148589,1.256641 0.495152,2.461789 0.721908,3.698209 0.143124,0.997226 0.205889,2.00781 0.271295,3.015074 0.07985,0.797245 0.131751,1.712642 0.606988,2.358224 0.102291,0.145163 0.231399,0.251328 0.347005,0.375547 0.601648,0.475214 1.340363,0.522157 2.036425,0.675264 0.550946,0.145164 1.116141,0.189941 1.67433,0.285273 0.607555,0.128558 1.224188,0.164664 1.839886,0.18994 0.55949,-0.04334 1.080403,0.112664 1.610842,0.285273 0.443005,0.167551 0.905355,0.231829 1.35915,0.34666 0.404178,0.08089 0.768879,0.278772 1.134637,0.483157 0.464997,0.297548 0.959452,0.513489 1.427151,0.805332 0.491634,0.28094 0.990426,0.540212 1.340928,1.03904 0.387969,0.615322 0.62954,1.324242 0.908575,2.006294 0.318542,0.772979 0.813564,1.403249 1.307724,2.029836 -0.454817,0.03611 -0.911941,0.03611 -1.367419,0.03611 -0.576013,-5.05e-4 -1.152014,-0.0051 -1.728004,-0.0068 -0.479322,-0.04333 -0.914605,-0.344492 -1.351586,-0.558988 -0.466379,-0.200052 -0.901996,-0.46438 -1.275205,-0.844044 -0.230832,-0.279495 -0.32118,-0.663709 -0.479322,-1.000403 C 40.65693,67.25882 40.281591,66.982432 39.87673,66.744464 39.560575,66.548023 39.209066,66.462803 38.900878,66.249751 38.535906,65.99048 38.129812,65.831593 37.732188,65.653931 37.202855,65.489267 36.683607,65.307271 36.16897,65.089886 35.673375,64.88189 35.169853,64.70495 34.660168,64.549674 34.262399,64.43701 33.85516,64.374178 33.446208,64.340235 c -0.475803,-0.88001 -1.669147,-0.215941 -1.270718,0.819706 0.294478,0.629764 0.440304,1.330667 0.611637,2.013297 0.203503,0.750446 0.511554,1.451493 0.79226,2.166262 0.0076,0.065 0.06579,0.197885 0.114912,0.328605 -0.05467,0.0072 -0.103733,0.01443 -0.222917,0.04333 -0.37182,0.08089 -0.74547,0.162496 -1.119508,0.234718 -0.455195,0.128558 -0.903666,0.293216 -1.338687,0.489656 -1.079556,0.720042 -0.395444,1.629879 0.128925,2.369493 0.465122,0.603764 0.860233,1.271084 1.253339,1.936816 0.553585,0.910197 1.121326,1.807686 1.679636,2.71355 0.502189,1.035863 1.25151,1.845169 1.941169,2.707556 0.600644,0.880083 1.088108,1.847047 1.664506,2.747565 0.738268,1.153435 1.561384,2.226209 2.49525,3.174027 0.6733,0.621824 1.371346,1.206669 2.052297,1.817656 0.30585,0.322106 0.735763,0.511323 0.978088,0.910269 0.170266,0.279496 0.212485,0.444158 0.335693,0.771179 0.410776,1.338754 0.774592,2.698377 1.123286,4.060467 0.312133,1.525591 0.771769,3.00091 1.181438,4.493995 0.448284,1.709903 0.79114,3.449698 1.26161,5.151728 0.366039,1.28878 0.610067,2.61172 0.975849,3.9005 0.289076,0.96169 0.54372,1.93277 0.737724,2.92567 0.142935,0.87285 0.327903,1.7447 0.698498,2.52845 0.558359,0.93272 1.35986,0.76481 2.205008,0.67021 0.465308,-0.0144 0.936181,-0.12857 1.402954,-0.11267 0.235731,0.007 0.891346,0.12855 1.068912,0.16539 1.088387,0.27371 2.159924,0.62831 3.254941,0.86837 0.523484,0.11267 1.055583,0.14517 1.587409,0.16105 0.495536,-0.0144 0.988887,0.065 1.479316,0.12857 0.599139,0.11266 1.202178,0.18993 1.807378,0.23688 0.06417,-5.8e-4 0.113564,2.9e-4 0.163977,0.002 -0.704206,0.2145 -1.424224,0.36688 -2.139231,0.53154 -0.790426,0.22822 -1.593248,0.38133 -2.38034,0.62544 -1.225032,0.46727 -2.420424,1.02135 -3.648009,1.48045 -0.92175,0.29321 -1.789734,0.74417 -2.672901,1.15511 -0.706486,0.3062 -1.401195,0.64276 -2.117299,0.9198 -0.613964,0.23471 -1.246468,0.38999 -1.875409,0.56043 -0.517961,0.16105 -1.021113,0.3936 -1.561705,0.40227 -0.154998,-9.7e-4 -0.936468,-0.0961 -0.97585,-0.19789 0.02513,-2.9e-4 0.06886,0.0361 0.07589,-9.3e-4 0.0052,-0.0144 -0.140736,-0.34811 -0.14281,-0.35461 -0.133134,-0.39144 -0.244152,-0.79725 -0.346123,-1.20017 -0.274688,-1.46441 -0.579345,-2.91895 -0.889656,-4.37318 -0.313641,-1.47721 -0.712515,-2.92819 -1.117962,-4.37586 -0.465436,-1.75114 -1.084043,-3.43835 -1.653919,-5.14565 -0.346312,-1.25491 -0.819588,-2.45782 -1.170091,-3.71099 -0.302333,-0.97946 -0.62477,-1.9517 -0.802067,-2.972615 -0.07043,-0.662256 -0.12195,-1.317729 -0.259986,-1.968078 C 38.5799,95.255102 38.194886,94.746024 37.535415,94.247191 37.407873,94.166311 37.282153,94.086138 37.15216,94.021141 36.716693,93.786421 36.275963,93.587093 35.864911,93.295899 35.604925,93.110291 35.19498,92.764355 34.954792,92.566178 34.170375,91.92984 33.372348,91.312709 32.653041,90.578731 32.199794,90.018296 31.67383,89.575154 31.11251,89.173963 30.615283,88.8923 30.173238,88.532644 29.746631,88.131744 29.509766,87.880422 29.166282,87.719369 29.041396,87.358765 29.020038,86.809893 28.90267,86.285924 28.73831,85.771931 c -0.258539,-0.625433 -0.598506,-1.602867 -1.306172,-1.703905 -0.201556,-0.03609 -0.398962,0.08088 -0.598695,0.128564 -0.140109,0.167545 -0.31138,0.306209 -0.418755,0.501929 -0.12327,0.22605 -0.302898,1.068071 -0.355925,1.308141 -0.151795,0.686811 -0.284049,1.374136 -0.410524,2.067168 -0.196089,1.358046 -0.474168,2.689505 -0.821681,4.006519 -0.326835,1.411201 -0.838086,2.750748 -1.19658,4.148075 -0.287442,1.515977 -0.445958,3.059912 -0.786937,4.563548 -0.278458,0.91187 -0.28141,1.89248 -0.491384,2.81957 -0.03896,0.12856 -0.102291,0.35245 -0.172402,0.4651 -0.175357,0.28673 -0.615157,0.56477 -0.865556,0.72618 -1.917396,1.14543 -3.91422,2.11427 -5.898348,3.09604 -1.561371,0.81342 -3.098477,1.6891 -4.626912,2.58153 -0.668915,0.42682 -1.6623941,0.77023 -1.840646,1.77157 -0.051519,0.28961 0.026386,0.58933 0.040836,0.88637 0.3238198,1.18731 0.7738882,2.31923 1.099875,3.50617 0.240823,0.92305 0.435341,1.85838 0.620559,2.79791 0.120569,0.62832 -0.01948,1.2549 -0.09254,1.87941 -0.0017,0.0144 -0.0056,0.0433 -0.0076,0.0808 -0.269347,-0.35099 -0.519781,-0.72704 -0.7770908,-1.08743 -0.8614831,-1.11155 -1.819849,-2.12522 -2.7673818,-3.14016 -0.7154131,-0.70125 -1.5722472,-1.16947 -2.3682695,-1.73351 -0.5844949,-0.42032 -1.0064036,-1.08258 -1.3983924,-1.72297 -0.4140421,-0.71137 -0.7238688,-1.49013 -1.1014268,-2.227 -0.2775139,-0.52649 -0.3559247,-1.1309 -0.4452674,-1.72651 -0.053406,-0.4586 -0.1739104,-0.92789 -0.022616,-1.37414 0.3431705,-0.43188 0.8344357,-0.65432 1.3001479,-0.85661 0.9807511,-0.41383 1.9777049,-0.77472 2.9699612,-1.15012 0.9712256,-0.37338 1.9103969,-0.83328 2.8921028,-1.17286 1.0862784,-0.48749 2.1019318,-1.18247 3.0561438,-1.94896 0.517835,-0.41093 0.987618,-0.89532 1.505754,-1.30654 0.299506,-0.23688 0.611827,-0.45066 0.91769,-0.67671 0.775453,-0.60593 1.632424,-1.05839 2.409836,-1.658694 0.271862,-0.315605 0.434085,-0.439824 0.566905,-0.892651 0.291903,-0.995556 0.148276,-2.149856 0.08689,-3.171496 -0.09387,-1.288849 -0.164738,-2.580591 -0.208717,-3.873552 -0.01004,-0.850409 -0.267651,-1.64953 -0.420263,-2.471107 -0.123269,-0.863838 -0.133134,-1.742837 -0.110704,-2.61548 0.06031,-1.512665 0.267963,-3.011823 0.47932,-4.504478 0.187669,-1.256497 0.332553,-2.520505 0.256216,-3.79614 -0.04461,-0.903843 -0.224174,-1.517575 -0.595616,-2.307814 -0.202497,-0.370494 -0.27984,-0.790963 -0.377225,-1.206593 -0.137281,-0.434768 -0.224801,-0.878205 -0.264572,-1.337168 -0.0421,-0.784606 -0.03518,-1.572246 -0.03707,-2.357214 -0.0056,-0.944142 0.02828,-1.887344 -0.04336,-2.82831 -0.08123,-1.016507 -0.249493,-2.017776 -0.380931,-3.025544 -0.06578,-0.493268 -0.09254,-0.992313 -0.102279,-1.490204 0.03203,-0.599432 -0.05026,-1.172791 -0.173093,-1.751715 C 15.216053,61.062712 15.033034,60.115609 14.844861,59.1719 14.645693,58.053923 14.343549,56.969311 14.042801,55.883905 13.842063,54.920552 13.59791,53.980887 13.278545,53.061806 13.016299,52.193423 12.692289,51.352918 12.456153,50.475002 12.26528,49.64988 12.12046,48.812265 11.995054,47.97082 c -0.09807,-1.08259 -0.239566,-2.152901 -0.421833,-3.220252 -0.07043,-0.778324 -0.385391,-1.428888 -0.789167,-2.040092 -0.317034,-0.467269 -0.530715,-0.998814 -0.676503,-1.56423 -0.130307,-0.489657 2.26e-4,-0.905433 0.179125,-1.353272 0.252006,-0.578489 0.603848,-1.127656 1.034841,-1.548125 0.656623,-0.518546 1.311927,-1.03904 1.944953,-1.594851 0.54504,-0.485325 1.005845,-1.04554 1.300154,-1.764065 0.168632,-0.504102 0.17768,-1.043879 0.179125,-1.575496 0.02325,-0.384937 0.157637,-0.727986 0.329662,-1.053629 0.157951,-0.264327 0.290144,-0.544545 0.412786,-0.831441 0.0044,0.0023 0.0095,0.0049 0.0132,0.007 1.041147,0.531762 2.157987,0.689274 3.282157,0.774748 0.90072,0.04333 1.802294,0.09605 2.697838,-0.04333 0.877603,-0.161053 1.631274,-0.691009 2.396987,-1.172829 0.07672,0.22049 0.243839,0.413896 0.520097,0.50569 0.587637,0.181779 1.196448,0.246562 1.791506,0.383347 0.07125,0.01444 1.31473,0.354604 1.338693,0.361104 1.220268,0.356049 2.43941,0.725241 3.681272,0.968193 0.712201,0.128557 1.413741,0.279494 2.115035,0.468711 0.664604,0.193552 1.350744,0.231829 2.032632,0.260717 0.681667,0.01444 1.363636,0.01444 2.045498,0.01444 0.848314,0.005 1.6936,0.01444 2.537579,-0.08089 1.410808,-0.25494 2.798834,-0.683209 4.167321,-1.148672 1.505379,-0.496156 3.026859,-0.90536 4.500678,-1.519554 0.883355,-0.415703 1.788159,-0.758556 2.704637,-1.063242 0.827709,-0.273571 1.647075,-0.568665 2.441589,-0.952108 0.268774,-0.128693 0.539567,-0.249233 0.809617,-0.372514 z m 1.127774,3.775348 c 0.127533,0.702709 0.155871,1.416033 0.102338,2.131524 -0.04774,0.855744 -0.126102,1.708166 -0.179127,2.56326 -0.05838,0.780129 -0.184835,1.546535 -0.277329,2.32168 -0.04455,0.955265 -0.01194,1.913489 -0.06582,2.869115 -0.06026,0.79905 -0.224991,1.56914 -0.415805,2.340026 -0.26765,1.382161 -0.407,2.790827 -0.471712,4.204621 -0.08827,1.411193 -0.08118,2.828886 -0.212488,4.235892 -0.02635,0.167551 -0.06026,0.33366 -0.07989,0.502656 -0.007,0.08089 0.01253,0.145165 -0.0023,0.21883 -0.01064,0.04333 -0.03522,0.112664 -0.07445,0.145163 -0.391355,0.301161 -0.90718,0.356049 -1.324392,0.586433 -1.799924,0.737807 0.731458,-0.301161 -1.093008,0.454268 -0.442817,0.183441 -0.908862,0.334382 -1.325943,0.591489 -0.112088,0.065 -0.215566,0.161051 -0.323632,0.236883 -0.72613,0.664432 -1.016627,1.209843 -1.113477,2.288749 -0.0377,0.902182 0.03896,1.791148 0.347757,2.62667 -0.466001,0.065 -0.932818,0.128557 -1.398387,0.187052 -0.930443,0.145163 -1.839388,0.423935 -2.749996,0.686819 -0.308428,0.112664 -0.735921,0.226772 -0.999248,0.434768 -0.294039,0.232552 -0.420262,0.586434 -0.447468,0.960175 -0.280718,-0.145163 -0.561563,-0.299716 -0.834579,-0.472323 -0.471467,-0.265051 -0.950198,-0.4976 -1.467964,-0.615321 -0.420576,-0.112665 -0.84915,-0.164663 -1.260063,-0.317771 -0.643235,-0.215941 -1.289919,-0.391438 -1.966114,-0.350994 -0.56395,-0.01444 -1.128468,-0.065 -1.68493,-0.17333 -0.537186,-0.08089 -1.080818,-0.128557 -1.610829,-0.272994 -0.457709,-0.09605 -0.930018,-0.161052 -1.373444,-0.317771 -0.367046,-0.112665 -0.386649,-1.25982 -0.430063,-1.565891 -0.07043,-1.082588 -0.138725,-2.169656 -0.299378,-3.240112 -0.234478,-1.256642 -0.577712,-2.484322 -0.734828,-3.760752 -0.113529,-0.509879 -0.181763,-0.852134 -0.318291,-1.35479 -0.231964,-0.856611 -0.537626,-1.687006 -0.71126,-2.564054 -0.219899,-1.150259 -0.393998,-2.312581 -0.312258,-3.494835 0.01383,-0.417437 0.0157,-0.578489 0.04649,-0.985886 0.0095,-0.112664 0.02324,-0.240495 0.03393,-0.361103 0.0038,-0.04334 0.02828,-0.09606 0.01383,-0.145164 0.349202,-0.04333 0.723316,0.0033 1.052928,-0.168996 0.797718,-0.32066 1.367136,-0.790963 1.719687,-1.703905 0.288321,-0.684653 0.570296,-1.374145 0.937318,-2.008099 0.234603,-0.417436 0.531972,-0.570544 0.972896,-0.531544 1.06583,0.0027 2.131808,0.0072 3.197498,-0.0072 1.167144,-0.03611 2.338059,-0.09605 3.490026,-0.328604 1.201066,-0.272994 2.402912,-0.560433 3.579224,-0.952087 0.934785,-0.354603 1.875584,-0.695485 2.78552,-1.127654 0.672042,-0.328606 1.346119,-0.65071 2.017522,-0.979459 0.620873,-0.364714 1.239608,-0.72979 1.886759,-1.031023 0.825736,-0.407325 1.647135,-0.829673 2.455936,-1.279102 0.185284,-0.09605 0.365983,-0.219551 0.555604,-0.311993 0.119118,-0.065 0.240446,-0.112665 0.362142,-0.161053 z m 7.770731,1.387072 c -0.0012,0.0072 -0.0023,0.01444 -0.0036,0.03611 -0.007,0.04333 -0.142245,0.065 -0.10931,0.03611 0.0371,-0.01443 0.07445,-0.04333 0.112146,-0.065 z m -32.86085,9.219921 c 7.23e-4,-7.3e-5 0.0014,2.16e-4 0.0023,0 -0.06031,0.065 -0.131752,0.162496 -0.157952,0.04333 0.05152,-0.01443 0.102292,-0.03611 0.155691,-0.04333 z m 76.497931,11.665099 c -0.36567,0 -0.73099,0.296106 -0.73099,0.890843 0.007,2.145174 0.0132,4.289119 -0.0713,6.432487 -0.12893,2.487212 -0.20658,4.977239 -0.25019,7.468134 -0.0282,1.865246 -0.032,3.730419 -0.0339,5.595954 -0.0813,1.253319 -0.28493,2.490171 -0.41272,3.737858 -0.0138,0.164662 -0.0283,0.328604 -0.0421,0.493268 -0.10092,1.182471 1.35396,1.346772 1.45514,0.164663 0.0132,-0.161052 0.0263,-0.30766 0.039,-0.460769 0.13313,-1.312901 0.35592,-2.612442 0.42257,-3.932492 8.4e-4,-1.854559 0.006,-3.709259 0.0339,-5.563672 0.0433,-2.47739 0.1219,-4.953695 0.25018,-7.427473 0.084,-2.168284 0.0813,-4.336929 0.0713,-6.507164 0,-0.595098 -0.36604,-0.890842 -0.73168,-0.890842 z m -34.910123,0.005 c -0.585573,0.161051 -0.894431,0.0975 -1.235124,0.803528 -0.293282,0.603043 0.06889,1.296796 0.244844,1.849862 0.11913,0.369049 0.262249,0.734269 0.359068,1.11155 0.102338,0.39577 0.09667,0.487491 0.163978,0.921537 0.03084,0.193551 0.06334,0.387103 0.09525,0.57921 0.392808,2.379963 0.665398,4.784265 1.034158,7.169357 0.386971,2.822026 0.697802,5.655391 1.046897,8.483845 0.06725,0.540934 0.14715,1.07934 0.211613,1.621429 0.04645,0.389992 0.07989,0.781068 0.120572,1.171204 0.05022,0.46438 0.307357,0.711375 0.59109,0.772041 v 9.38e-4 c -0.383199,0.799051 0.524182,1.710837 1.19055,0.953675 0.767627,-0.876399 1.440925,-1.845819 2.10823,-2.823831 0.569541,-0.748641 1.143881,-1.493454 1.728002,-2.227867 0.390858,-0.491101 0.86528,-1.048789 1.223068,-1.573907 0.178946,-0.262884 0.334507,-0.544544 0.501887,-0.817034 0.310561,-0.65071 0.467823,-0.929553 0.702959,-1.621428 0.35624,-1.047202 0.511423,-2.159835 0.554838,-3.278318 -8.42e-4,-0.603044 0.0059,-1.079339 -0.03081,-1.684044 -0.08274,-1.320918 -0.365667,-2.609554 -0.756668,-3.852616 -0.334625,-0.934393 -0.47172,-1.4273 -0.945713,-2.291277 -0.790437,-1.441815 -1.912999,-2.549971 -3.202781,-3.370398 -0.333681,-0.201496 -0.659275,-0.42177 -1.000784,-0.603767 -1.467227,-0.786411 -3.081864,-1.29044 -4.70553,-1.29044 z m 22.282661,0.306215 c -0.624079,0.005 -1.247584,0.08089 -1.856509,0.236884 -0.202186,0.112664 -0.429305,0.175497 -0.606985,0.33366 -0.651857,0.577045 -0.439048,1.580408 -0.259298,2.339087 0.432515,1.702027 0.92049,3.389031 1.190559,5.13959 0.503007,2.769018 1.00906,5.537962 1.354528,8.340561 0.06342,0.452824 0.415299,2.962424 0.480015,3.410481 0.0421,0.289605 0.315767,2.095846 0.371114,2.572865 0.04906,0.420325 0.04211,0.507713 0.04211,0.874665 0,0.645655 0.430689,0.939088 0.82463,0.884489 0.127536,0.564044 0.779367,0.927891 1.271413,0.34016 0.399344,-0.479547 0.84102,-0.903772 1.301696,-1.303297 0.422954,-0.373382 0.857279,-0.739685 1.249559,-1.156688 0.51726,-0.551043 0.9757,-1.171205 1.44453,-1.775042 1.14711,-1.606189 -0.24949,0.350993 0.88671,-1.250141 0.5397,-0.76034 1.12875,-1.491865 1.47175,-2.404301 0.0766,-0.217385 0.16543,-0.42827 0.23209,-0.648543 0.39438,-1.308063 0.43992,-2.722218 0.37345,-4.090729 -0.13458,-2.295321 -0.40462,-4.48722 -1.44833,-6.505647 -0.56143,-0.952015 -0.69341,-1.277513 -1.41656,-2.093896 -1.12988,-1.277515 -2.540695,-2.099097 -4.027473,-2.681486 -0.340161,-0.112664 -0.675651,-0.242662 -1.020414,-0.33366 -0.609325,-0.161053 -1.234004,-0.232551 -1.858023,-0.226772 z m -32.820029,0.0072 c -0.05719,-0.0017 -0.117699,0.0016 -0.18214,0.0072 -0.975,0.267216 -1.321448,0.679597 -1.997116,1.594851 -0.903672,1.224358 -1.18705,1.796709 -2.012219,3.193241 -1.155663,2.152324 -2.17655,4.399184 -3.046306,6.722598 -0.453619,1.211505 -0.950904,2.668847 -1.22756,3.963259 -0.119118,0.560434 -0.173466,1.135745 -0.259981,1.703906 -0.183522,1.984771 -0.0036,3.66347 0.888959,5.409047 0.582866,1.13892 0.984667,1.577084 1.735563,2.569252 1.091045,1.288853 2.256293,2.506423 3.704708,3.23491 0.671733,0.338718 1.004294,0.409492 1.693245,0.619656 0.943331,0.174047 1.935241,0.417435 2.89664,0.260717 0.904509,-0.145166 1.132667,-0.320664 1.976695,-0.70921 2.562244,-1.705634 3.542904,-4.284998 4.674533,-7.2779 0.74696,-2.217033 1.737831,-4.437604 1.929071,-6.845229 0.02954,-0.370493 0.01064,-0.742357 0.01631,-1.1148 -0.08828,-1.372482 -0.423664,-2.698385 -1.062745,-3.869227 -0.332988,-0.610988 -0.697399,-1.074502 -1.096789,-1.623018 -0.920215,-1.14376 -1.992318,-2.107763 -3.050099,-3.07516 -0.784115,-0.729791 -1.672589,-1.280764 -2.57386,-1.790787 -0.593916,-0.399381 -1.323127,-0.586431 -1.808145,-1.172791 -0.193947,-0.204385 -0.354982,-0.450659 -0.540384,-0.666599 0.158329,-0.484601 -0.09525,-1.119638 -0.658425,-1.142099 z m 10.63564,0.811616 c 0.06417,3.62e-4 0.05719,0.145164 0.05342,0.211608 -7.93e-4,0.01444 -0.0023,0.03611 -0.0036,0.04333 -0.0036,-0.0072 -0.0083,-0.03611 -0.01194,-0.04333 -0.0182,-0.065 -0.10092,-0.211608 -0.03769,-0.211608 z m 0.141359,0.536602 c 1.349491,0.09605 2.683963,0.515655 3.905034,1.180809 0.29982,0.163219 0.584995,0.358936 0.877603,0.538045 1.092454,0.695485 2.045322,1.630528 2.699353,2.865574 0.380362,0.717875 0.505649,1.168028 0.778501,1.944617 0.260673,0.860294 0.481518,1.742471 0.594044,2.64588 0.09382,0.747773 0.084,1.506237 0.08544,2.258994 -0.04209,0.934392 -0.172161,1.863946 -0.477756,2.735507 -0.1937,0.552488 -0.343917,0.823316 -0.597815,1.348434 -0.13728,0.218106 -0.265832,0.442711 -0.41196,0.652153 -0.29807,0.426102 -0.78946,1.011669 -1.105079,1.407943 -0.593926,0.745969 -1.17835,1.503059 -1.757479,2.265277 -0.443447,0.63771 -0.880414,1.280763 -1.348498,1.893268 -0.4471,-3.743564 -0.862337,-7.493771 -1.373449,-11.22708 -0.369871,-2.402424 -0.647778,-4.823264 -1.042429,-7.220489 -0.03202,-0.193551 -0.06417,-0.384936 -0.09383,-0.578488 -0.0728,-0.47088 -0.06417,-0.540211 -0.180687,-1.010079 -0.10931,-0.441991 -0.270227,-0.866505 -0.408962,-1.296868 -0.04645,-0.128558 -0.09253,-0.260718 -0.137282,-0.392882 -0.0012,-0.0051 -0.0036,-0.0072 -0.0047,-0.01443 z m 15.116678,0.03611 c -0.517014,0.0035 -0.90312,1.079339 -1.055324,1.388733 -1.30154,4.149372 -2.650042,8.283073 -3.765935,12.505171 -0.648713,2.652812 -0.699754,2.674697 -1.163359,5.236005 -0.283349,1.565819 -0.515691,3.136187 -0.443002,4.740789 0,1.188826 1.462675,1.188826 1.462675,0 -0.07441,-1.50147 0.149274,-2.96589 0.417245,-4.429734 0.353216,-1.929017 0.447402,-2.331431 0.749065,-3.540768 0.103756,-0.01444 0.211612,-0.065 0.322749,-0.128557 1.02912,-0.189942 2.077849,-0.211608 3.118143,-0.270828 1.10185,-0.065 2.204143,-0.09606 3.30708,-0.112664 0.24083,1.798657 0.459536,3.601505 0.678695,5.402763 0.143447,1.177632 1.591704,0.943997 1.448353,-0.233995 -0.215705,-1.771359 -0.430888,-3.544524 -0.666724,-5.313355 0.775129,-0.285271 0.626706,-1.617094 -0.224501,-1.631899 -0.308033,-2.167419 -0.657712,-4.327108 -1.090766,-6.467227 -0.326268,-1.448315 -0.736791,-3.456703 -1.204992,-4.898878 -0.357873,-1.103534 -0.611326,-2.075915 -1.839128,-2.235738 -0.01635,-0.0016 -0.03393,-0.0033 -0.05028,-0.0033 z m 5.487882,0.194997 c 0.0094,-0.0017 0.02331,0.03611 0.02331,0.04333 0.01322,0.19644 -0.0689,0.08089 0.04646,0.194996 0.985928,-0.18344 2.003679,-0.204386 2.98056,0.065 0.29013,0.08089 0.572491,0.193553 0.858663,0.291772 1.283061,0.512045 2.509071,1.21302 3.474159,2.334681 0.59436,0.691153 0.70062,0.960103 1.16113,1.761247 0.8818,1.743411 1.09161,3.708249 1.20414,5.680959 0.0938,1.362878 -0.0233,2.721423 -0.49516,3.980375 -0.0728,0.161053 -0.13872,0.320661 -0.21921,0.473046 -0.20394,0.387103 -0.35964,0.568378 -0.61609,0.926376 -0.4371,0.610988 -0.86849,1.225875 -1.30464,1.835997 -0.437534,0.560433 -0.863168,1.137404 -1.345549,1.649088 -0.346686,0.366882 -0.736469,0.68682 -1.109706,1.016579 -0.363197,0.314161 -0.713371,0.64421 -1.045355,0.998815 -0.0035,-0.161053 -0.01322,-0.320661 -0.04332,-0.597267 -0.06586,-0.609543 -0.314463,-2.217826 -0.387087,-2.720484 -0.06351,-0.434046 -0.417065,-2.964445 -0.477761,-3.396543 -0.3492,-2.828093 -0.859794,-5.621881 -1.367413,-8.416248 -0.277202,-1.793673 -0.774912,-3.523073 -1.217736,-5.267204 0.02323,-0.18994 -0.23895,-0.642765 -0.123281,-0.85661 8.35e-4,-0.0017 0.0026,-0.0033 0.0035,-0.0033 z m -32.00894,0.527932 c 0.03769,0.03611 0.07587,0.04333 0.110728,0.08089 0.264566,0.238329 0.44439,0.586434 0.70007,0.835956 0.10092,0.112663 0.194513,0.223884 0.301637,0.322104 0.556419,0.514213 1.261748,0.750447 1.876911,1.150261 0.80782,0.456434 1.606635,0.945659 2.309318,1.598101 0.981452,0.897126 1.976116,1.789125 2.839194,2.838708 0.283546,0.387105 0.68966,0.915039 0.932825,1.346775 0.517953,0.921463 0.797575,1.964549 0.885165,3.051689 7.79e-4,0.286715 0.02258,0.573432 0.0023,0.858415 -0.160338,2.222017 -1.144437,4.399471 -1.82703,6.446353 -0.929042,2.466267 -1.810142,4.923941 -3.888396,6.390888 -0.555095,0.269384 -0.88097,0.476657 -1.474767,0.584988 -0.817758,0.145166 -1.666574,-0.08089 -2.471073,-0.207995 -0.575445,-0.171163 -0.853778,-0.228217 -1.414298,-0.499767 -1.280809,-0.619654 -2.289465,-1.716326 -3.254939,-2.836183 -0.766296,-0.998813 -1.53057,-1.973216 -1.975197,-3.226246 -0.383944,-1.082589 -0.409634,-2.213493 -0.307663,-3.361805 0.07126,-0.497601 0.113564,-1.00199 0.216257,-1.49338 0.259284,-1.230787 0.728325,-2.604716 1.158026,-3.755335 0.836265,-2.239206 1.818876,-4.405035 2.928405,-6.48131 1.180598,-2.006149 0.736858,-1.340273 1.897318,-3.0228 0.179494,-0.260718 0.31056,-0.462213 0.45576,-0.623265 z m 27.167347,0.636266 c 0.02253,0.0053 0.01957,0.145164 -0.01322,0.185607 -0.03897,0.04333 -0.09666,0.065 -0.157262,0.09605 0.04654,-0.09605 0.09667,-0.18994 0.159463,-0.27155 0.0052,-0.0051 0.007,-0.0072 0.01192,-0.0068 z m -0.404494,0.8504 c 0.08404,0.234717 0.236427,0.458601 0.307677,0.701263 0.515883,1.749692 0.712345,2.790683 1.129314,4.647769 0.409949,2.034025 0.743576,4.085672 1.038613,6.144903 -1.049983,0.01444 -2.099331,0.065 -3.148349,0.112665 -0.893582,0.04333 -0.791131,0.04333 -0.696238,0.03611 0.04966,-0.0017 -0.04209,0.005 -0.721906,0.04334 -0.493891,0.03611 -0.99406,0.04333 -1.482345,0.128557 1.068921,-3.991858 2.339419,-7.907018 3.57319,-11.834384 z m -42.775348,4.470393 c 0.04775,-0.0013 0.03896,0.04333 0.02513,0.112665 l -7.55e-4,-8.67e-4 c -0.01194,-0.03611 -0.01948,-0.065 -0.02325,-0.112665 z m -10.968231,2.863915 c 0.08124,0.01444 0.162286,0.03611 0.242581,0.065 0.464808,0.145164 0.923013,0.303327 1.37499,0.4911 0.506777,0.215941 1.016626,0.407325 1.541297,0.553933 0.328405,0.145163 0.666249,0.272995 0.967576,0.486769 0.335129,0.218106 0.689502,0.357492 1.039339,0.534433 0.141679,0.08089 0.301138,0.145163 0.402921,0.29755 0.252698,0.502656 0.384135,1.085839 0.805861,1.46117 0.495154,0.479546 1.043669,0.858416 1.653917,1.116389 0.619053,0.303328 1.231477,0.684653 1.921519,0.694764 0.579093,0.0017 1.158041,0.0067 1.737078,0.0067 0.719792,-0.0033 1.443937,0.007 2.156617,-0.128557 0.15236,-0.04333 0.360575,-0.09606 0.538946,-0.185607 0.09386,0.734267 0.165429,1.472508 0.300887,2.200206 0.172528,1.121154 0.196779,2.254948 0.251063,3.390331 0.02639,1.206664 0.08269,2.412462 0.228949,3.609377 0.147584,1.348434 0.326646,2.689074 0.569983,4.019672 0.18302,1.527177 0.2963,3.064969 0.545667,4.580885 0.258856,1.517579 0.556978,3.02562 0.771767,4.552149 0.207843,1.032689 0.390291,2.077724 0.451305,3.136771 0.113563,1.275836 0.268784,2.549022 0.28957,3.833612 0.0767,1.22588 0.12472,2.54326 0.837531,3.5321 0.114863,0.11267 0.215559,0.25927 0.345432,0.35605 0.446517,0.33005 0.981723,0.30982 1.489124,0.35749 0.598701,-0.007 1.428206,-0.0809 1.920764,-0.51349 0.166187,-0.14516 0.29385,-0.34232 0.44081,-0.51205 0.133135,-0.36688 0.174163,-0.57198 0.259296,-0.93597 0.0195,-0.0809 0.100919,-0.208 0.039,-0.25638 -0.01571,-0.007 -0.0371,0.002 -0.05471,0.004 -0.110728,-0.0361 -0.130369,-0.0361 0.102338,-0.0434 0.439994,-0.0361 0.881253,0.0434 1.31977,0.0809 1.028959,0.11265 2.055766,0.31415 3.091673,0.29755 0.941226,0.004 1.882889,0.007 2.823313,0.065 -0.16744,0.76215 -0.315464,1.53202 -0.467944,2.30868 -0.382313,1.78291 -0.83149,3.53918 -1.056007,5.36022 -0.0585,0.73601 -0.121956,1.4757 -0.153437,2.21754 -0.110728,-0.0144 -0.225367,-0.0361 -0.349201,-0.0144 -0.572928,-0.0433 -1.142759,-0.12856 -1.709849,-0.22605 -0.547803,-0.0809 -1.099602,-0.1625 -1.653184,-0.14517 -0.447404,-0.007 -0.895258,-0.0361 -1.335737,-0.12855 -1.113487,-0.24194 -2.199996,-0.61388 -3.309371,-0.87821 -0.504386,-0.0809 -0.846912,-0.16322 -1.352279,-0.18344 -0.49283,-0.0144 -0.989442,0.0961 -1.48083,0.11267 -0.157454,0.0144 -0.632353,0.0361 -0.77091,0.0809 -0.04336,0.0144 0.06579,0.11267 0.04084,0.14517 -0.0157,0.0361 -0.0421,-0.0434 -0.06339,-0.065 -0.339966,-0.60088 -0.388031,-1.38375 -0.540391,-2.06191 -0.204444,-1.04387 -0.47065,-2.0663 -0.774748,-3.07855 -0.365978,-1.28394 -0.60234,-2.60508 -0.972061,-3.88742 -0.470776,-1.70045 -0.80879,-3.44104 -1.260911,-5.148195 -0.407005,-1.483768 -0.863872,-2.948406 -1.173171,-4.463664 -0.368492,-1.437053 -0.74821,-2.874823 -1.195041,-4.282047 -0.226498,-0.554649 -0.270793,-0.752245 -0.600267,-1.225942 -0.313704,-0.450659 -0.756509,-0.734268 -1.145148,-1.085767 -0.65858,-0.589324 -1.332243,-1.158283 -1.986522,-1.753383 -0.858964,-0.863829 -1.604114,-1.854847 -2.282846,-2.909125 -0.609314,-0.947248 -1.11109,-1.979283 -1.765811,-2.888254 -0.648555,-0.81075 -1.356065,-1.56589 -1.824,-2.54152 -0.55258,-0.897127 -1.113622,-1.785948 -1.662237,-2.685747 -0.416931,-0.707041 -0.837659,-1.412927 -1.329576,-2.054247 -0.0076,-0.0072 -0.01004,-0.01444 -0.01633,-0.03611 0.112087,-0.03611 0.225366,-0.08089 0.338584,-0.112664 0.406124,-0.08089 0.812018,-0.162497 1.215503,-0.259274 0.597063,-0.164663 1.077037,-0.336548 1.323553,-1.060128 0.02262,-0.128557 0.05843,-0.252773 0.06886,-0.381325 0.02954,-0.442714 -0.165114,-0.864771 -0.29247,-1.269425 -0.252508,-0.641321 -0.531153,-1.266246 -0.719632,-1.938478 -0.04901,-0.19644 -0.09807,-0.395048 -0.147397,-0.592932 z m -0.31515,3.658125 c 0.02513,0.08089 0.04461,0.145165 0.03393,0.187775 -0.01383,0.04333 -0.02513,-0.09605 -0.02953,-0.145163 -0.01004,-0.01444 -0.0095,-0.03611 -0.0038,-0.04333 z m 13.805164,0.928038 c 0.08689,0.165386 -0.0038,0.128557 -0.0014,0.03611 2.08e-4,-0.0072 0.0012,-0.01445 0.0014,-0.03611 z m -15.792432,1.230787 c -0.04776,0.03611 -0.106557,0.065 -0.190434,0.08089 0.06339,-0.03611 0.127542,-0.04333 0.190434,-0.08089 z m 56.541184,16.063405 c 0.01061,-1.45e-4 0.01949,0 0.03071,0 -0.131754,0.387829 -0.02827,0.880944 0.44747,1.101944 0.410201,0.182 0.829397,0.306219 1.271413,0.330049 0.62882,0.04335 1.246201,0.179833 1.8361,0.447767 0.828405,0.36905 1.647824,0.784608 2.424198,1.280693 0.937733,0.615322 1.846122,1.275846 2.665332,2.092382 0.647386,0.592933 1.288386,1.195319 1.918494,1.812518 0.353045,0.346661 0.830372,0.811621 1.152705,1.209842 0.14916,0.183441 0.27985,0.387829 0.41945,0.581384 0.96253,1.559454 1.79641,3.216843 2.66685,4.844053 0.35455,0.74777 0.67847,1.51107 0.9743,2.29041 -1.23008,-0.14517 -2.44832,-0.39144 -3.66313,-0.65216 -1.410486,-0.32065 -2.840596,-0.4817 -4.274664,-0.56692 -1.366577,-0.065 -2.734163,-0.0434 -4.101558,-0.0434 -1.315563,-0.007 -2.631526,0.0361 -3.946593,-0.0144 -1.287546,-0.0809 -2.575223,-0.12856 -3.864204,-0.16106 -1.647235,-0.0144 -3.294814,-0.0144 -4.94214,-0.0361 -1.453971,-0.007 -2.907984,0.0144 -4.361584,-0.0144 -1.312209,-0.065 -2.6154,-0.234 -3.918626,-0.40733 -1.280951,-0.11266 -2.565152,-0.16538 -3.847579,-0.26288 -0.269731,-0.0144 -0.538882,-0.0433 -0.808093,-0.0809 0.213611,-0.6767 0.469892,-1.33702 0.797434,-1.966269 0.130309,-0.25855 0.25087,-0.523601 0.393115,-0.77204 0.71698,-1.25816 1.6685,-2.331207 2.601088,-3.372991 1.080682,-1.113216 2.089657,-2.321761 3.264772,-3.307061 0.365663,-0.29755 0.631801,-0.531554 1.026571,-0.784686 1.120906,-0.717153 2.367374,-1.111551 3.552786,-1.656815 1.095652,-0.449934 2.200588,-0.907018 3.33506,-1.214679 1.068627,-0.289607 2.168216,-0.407325 3.259471,-0.512049 1.229936,-0.08088 2.45991,-0.145157 3.691114,-0.162495 z M 65.924736,103.39658 c 0.382692,0.0433 0.765042,0.0809 1.148928,0.11266 1.258675,0.0961 2.519052,0.14516 3.776521,0.25639 1.346821,0.1791 2.69409,0.35604 4.050152,0.41743 1.465644,0.0434 2.931096,0.0144 4.397112,0.0144 1.639994,8.7e-4 3.280335,0.002 4.920212,0.0361 1.282232,0.0144 2.562999,0.0809 3.843781,0.16105 1.329734,0.0433 2.659599,0.007 3.989708,0.0144 1.341765,-5.1e-4 2.684941,-0.007 4.025967,0.0433 1.369517,0.0809 2.734294,0.23399 4.081153,0.53949 1.3614,0.29321 2.72649,0.57344 4.10759,0.7121 0.14471,0.0144 0.29053,0.0361 0.43617,0.0434 0.11628,0.37049 0.22592,0.74235 0.32808,1.11798 0.28173,1.06322 0.59782,2.24216 0.74759,3.34086 0.039,0.28527 0.032,0.58643 0.0352,0.87458 -0.0421,1.15662 -0.29385,2.29042 -0.52991,3.41056 -0.31577,1.47569 -0.46882,2.98705 -0.63125,4.4938 -0.0132,1.21309 -0.0251,2.43051 -0.16398,3.63472 -0.12608,0.75853 -0.30045,1.54335 -0.68786,2.18533 -0.29096,0.4196 -0.62363,0.67021 -1.0106,0.97145 -0.63714,0.49615 -1.2996,0.94876 -1.96688,1.38858 -1.694574,1.10194 -3.493519,1.95914 -5.279275,2.84398 -1.247027,0.61098 -2.501659,1.20666 -3.782562,1.71879 -1.040866,0.44633 -2.095043,0.84766 -3.177075,1.14216 -1.480158,0.39144 -2.965392,0.73428 -4.469683,0.98106 -0.693179,0.11261 -1.398115,0.27299 -2.102185,0.26071 -0.636667,-0.007 -1.27549,-0.1285 -1.898092,-0.27516 -0.483782,-0.16105 -0.609506,-0.17333 -1.069611,-0.41094 -0.764959,-0.39143 -1.412324,-1.01166 -2.105965,-1.53852 -0.877191,-0.61387 -1.763054,-1.20818 -2.611668,-1.87319 -0.808092,-0.55104 -1.637975,-1.06323 -2.380351,-1.73098 -1.068759,-0.90378 -1.970587,-2.03128 -2.831621,-3.18624 -0.594801,-0.77204 -0.712207,-0.93599 -1.328172,-1.69083 -0.663047,-0.81343 -1.394752,-1.59484 -1.959325,-2.50591 -0.142943,-0.23039 -0.252134,-0.48678 -0.378036,-0.72979 -0.103756,-0.26434 -0.216387,-0.52577 -0.31069,-0.79458 -0.443007,-1.26134 -0.670479,-2.60406 -0.838368,-3.94557 -0.0083,-0.0961 -0.01324,-0.18993 -0.02138,-0.28527 0.06026,-0.20583 0.07433,-0.43983 0.02138,-0.70559 -0.01324,-0.065 -0.03711,-0.12857 -0.06334,-0.18778 -0.02328,-1.04078 0.03202,-2.08096 0.137399,-3.1177 0.213304,-1.77569 0.672276,-3.48205 1.034844,-5.22207 0.165926,-0.84397 0.324575,-1.69588 0.515507,-2.53372 z m 53.105594,20.15761 c -0.0195,0.081 -0.032,0.081 0,0 z"
       inkscape:export-filename="karakter.png"
       inkscape:export-xdpi="150"
       inkscape:export-ydpi="150" /><path
       style="fill:#d3bc5f;stroke-width:0.2;stroke-linecap:round;stroke-linejoin:round"
       d="m 24.328806,33.231073 13.470379,0.665858 19.140132,-6.785158 0.715119,5.470139 -14.669482,6.139984 -11.118098,1.753591 0.370451,1.911981 -2.427729,0.991822 2.398998,18.423192 14.003208,3.405248 3.130814,6.607839 -8.887515,-1.204124 -1.047062,-2.655834 -7.58,-2.972256 2.980324,6.00193 -4.724624,1.125379 17.031168,25.389906 8.3088,30.8607 10.822966,-0.39975 0.536247,3.20875 -21.380328,4.2964 -8.582303,-39.969514 -10.404049,-11.096064 1.690587,23.098958 -13.983759,15.21151 2.748696,10.03212 -4.08229,2.44656 L 0,118.97268 18.903965,100.93101 16.270237,72.74087 l -2.530808,0.409604 -5.08112,-35.164265 8.202198,-3.610533 0.801848,-6.330246 6.566166,-3.429317 z"
       id="path906"
       sodipodi:nodetypes="cccccccccccccccccccccccccccccccccccc" /><path
       id="rect471"
       style="fill:#502d16;stroke-width:0.2;stroke-linecap:round;stroke-linejoin:round"
       d="m 43.657805,9.8588298 v 7.0006062 h 8.844938 V 110.70952 H 113.0174 l 6.26835,10.71563 h 7.33599 V 16.859436 h 8.84493 V 9.8588298 Z"
       sodipodi:nodetypes="ccccccccccc" /><path
       id="path629"
       style="fill:#1a1a1a;stroke-width:0.2;stroke-linecap:round;stroke-linejoin:round"
       d="M 86.756978 87.382263 A 24.055494 24.055494 0 0 0 63.032328 110.99116 A 24.055494 24.055494 0 0 0 85.869177 135.45995 L 88.950643 135.41809 A 24.055494 24.055494 0 0 0 111.11415 110.33797 A 24.055494 24.055494 0 0 0 86.756978 87.382263 z M 86.841728 93.637695 A 17.795214 17.795214 0 0 1 104.86027 110.6196 A 17.795214 17.795214 0 0 1 88.464884 129.17299 L 86.18492 129.204 A 17.795214 17.795214 0 0 1 69.291378 111.10278 A 17.795214 17.795214 0 0 1 86.841728 93.637695 z " /><rect
       style="fill:#cccccc;stroke-width:0.2;stroke-linecap:round;stroke-linejoin:round"
       id="rect683"
       width="32.733341"
       height="30.036005"
       x="58.571606"
       y="22.015902" /><rect
       style="fill:#cccccc;stroke-width:0.2;stroke-linecap:round;stroke-linejoin:round"
       id="rect685"
       width="26.723814"
       height="38.545372"
       x="95.692024"
       y="22.015902" /><text
       xml:space="preserve"
       style="font-size:22.7995px;line-height:0px;font-family:Ubuntu;-inkscape-font-specification:Ubuntu;fill:#de8787;stroke-width:0.2;stroke-linecap:round;stroke-linejoin:round"
       x="57.023895"
       y="82.570343"
       id="text741"><tspan
         sodipodi:role="line"
         id="tspan739"
         style="font-size:22.7995px;fill:#de8787;stroke-width:0.2"
         x="57.023895"
         y="82.570343">KUE</tspan></text><path
       style="fill:#d3bc5f;stroke-width:0.2;stroke-linecap:round;stroke-linejoin:round"
       d="M 23.731896,30.248203 27.912184,25.387049 27.372669,14.410534 29.415046,0.7962966 22.261298,5.5800659 22.678024,0.71400217 16.387896,4.4766883 15.710001,1.2939999 9.6052456,10.141278 7.4089685,6.8599618 7.937238,21.281439 5.8078803,21.85937 6.8925606,25.734184 9.2995114,25.603307 18.845773,31.16046 Z"
       id="path1014" /></g></svg>
