<?xml version="1.0" encoding="UTF-8" standalone="no"?>
<!-- Created with Inkscape (http://www.inkscape.org/) -->

<svg
   width="230.8222"
   height="222.2666"
   viewBox="0 0 61.071707 58.808037"
   version="1.1"
   id="svg1"
   xml:space="preserve"
   xmlns="http://www.w3.org/2000/svg"
   xmlns:svg="http://www.w3.org/2000/svg"><defs
     id="defs1" /><g
     id="layer1"
     transform="translate(-4.4472261,50.59036)"><g
       id="g122"
       transform="matrix(14.044681,0,0,14.044681,-58.012691,-105.41427)"
       style="fill:#e0d5c5;fill-opacity:1"><path
         id="rect115"
         style="fill:#e0d5c5;fill-opacity:1;stroke:none;stroke-width:0.188517;stroke-dasharray:none;stroke-opacity:1"
         d="M 6.6214229,3.9035355 A 0.52763644,0.52763644 0 0 0 6.0938182,4.4311402 0.52763644,0.52763644 0 0 0 6.4729417,4.9372648 V 6.2778909 H 6.769904 V 4.9372648 A 0.52763644,0.52763644 0 0 0 7.1490276,4.4311402 0.52763644,0.52763644 0 0 0 6.6214229,3.9035355 Z" /><circle
         style="fill:#e0d5c5;fill-opacity:1;stroke:none;stroke-width:0.363707;stroke-dasharray:none;stroke-opacity:1"
         id="circle119"
         cx="6.6214414"
         cy="6.1458888"
         r="0.52763647" /><path
         id="path119"
         style="fill:#e0d5c5;fill-opacity:1;stroke:none;stroke-width:0.188517;stroke-dasharray:none;stroke-opacity:1"
         d="M 8.7698019,5.4644241 A 0.52763644,0.52763644 0 0 0 8.1049811,5.1256811 0.52763644,0.52763644 0 0 0 7.7407836,5.6426501 L 6.4657724,6.0569264 6.5575388,6.3393542 7.83255,5.925078 A 0.52763644,0.52763644 0 0 0 8.4310587,6.1292448 0.52763644,0.52763644 0 0 0 8.7698019,5.4644241 Z" /><path
         id="path120"
         style="fill:#e0d5c5;fill-opacity:1;stroke:none;stroke-width:0.188517;stroke-dasharray:none;stroke-opacity:1"
         d="M 7.9491941,7.9899951 A 0.52763644,0.52763644 0 0 0 8.065917,7.2530356 0.52763644,0.52763644 0 0 0 7.461707,7.0664153 L 6.6737067,5.9818261 6.4334593,6.1563762 7.2214594,7.2409654 a 0.52763644,0.52763644 0 0 0 -0.00922,0.6323067 0.52763644,0.52763644 0 0 0 0.7369595,0.116723 z" /><path
         id="path121"
         style="fill:#e0d5c5;fill-opacity:1;stroke:none;stroke-width:0.188517;stroke-dasharray:none;stroke-opacity:1"
         d="M 5.2936516,7.9899951 A 0.52763644,0.52763644 0 0 0 6.0306111,7.8732721 0.52763644,0.52763644 0 0 0 6.0213863,7.2409654 L 6.8093866,6.1563762 6.5691391,5.9818262 5.7811388,7.0664154 a 0.52763644,0.52763644 0 0 0 -0.60421,0.1866202 0.52763644,0.52763644 0 0 0 0.1167228,0.7369595 z" /><path
         id="path122"
         style="fill:#e0d5c5;fill-opacity:1;stroke:none;stroke-width:0.188517;stroke-dasharray:none;stroke-opacity:1"
         d="M 4.4730439,5.4644241 A 0.52763644,0.52763644 0 0 0 4.811787,6.1292449 0.52763644,0.52763644 0 0 0 5.4102958,5.9250781 L 6.685307,6.3393543 6.7770733,6.0569264 5.5020622,5.6426501 A 0.52763644,0.52763644 0 0 0 5.1378647,5.1256811 0.52763644,0.52763644 0 0 0 4.4730439,5.4644241 Z" /></g></g></svg>
